<svg width="62" height="62" viewBox="0 0 62 62" fill="none" xmlns="http://www.w3.org/2000/svg">
<path fill-rule="evenodd" clip-rule="evenodd" d="M22.4725 14.9259C22.8589 14.9217 23.571 14.9795 24.0736 15.0561C24.5713 15.1326 25.2605 15.2712 25.6051 15.3651C25.9496 15.4584 26.5295 15.6568 26.8929 15.8058C27.2563 15.9541 27.8521 16.2506 28.2155 16.4643C28.5789 16.678 29.0794 17.0052 29.3265 17.1918C29.5743 17.3776 30.0519 17.7883 31 18.6787L31.6119 18.1044C31.9481 17.7883 32.4257 17.3776 32.6735 17.1918C32.9206 17.0052 33.4051 16.6878 33.7497 16.4859C34.0943 16.2833 34.6734 15.993 35.0375 15.8392C35.4016 15.686 35.9181 15.4974 36.1861 15.4208C36.4541 15.3443 36.83 15.2468 37.0214 15.2057C37.2129 15.164 37.6988 15.0825 38.1004 15.024C38.5021 14.9663 39.1133 14.9189 39.4579 14.9196C39.8024 14.9203 40.4603 14.9844 40.9197 15.0623C41.3792 15.1396 42.0293 15.2962 42.3642 15.4097C42.699 15.5232 43.2002 15.7292 43.478 15.8677C43.7557 16.0056 44.1866 16.2541 44.4351 16.4198C44.6836 16.5847 45.0832 16.8869 45.3234 17.0901C45.5628 17.2941 45.9492 17.6797 46.1831 17.9477C46.4163 18.2157 46.7567 18.6543 46.9391 18.9223C47.1208 19.1903 47.4152 19.6992 47.5927 20.0535C47.7702 20.4078 47.9958 20.909 48.0932 21.1673C48.1907 21.4256 48.3445 21.9351 48.4357 22.2985C48.5269 22.6619 48.6501 23.2731 48.71 23.6559C48.7706 24.0388 48.82 24.7829 48.82 25.3092C48.8207 25.8417 48.7727 26.5678 48.7121 26.9451C48.6529 27.3182 48.5395 27.8897 48.4601 28.2155C48.3807 28.5413 48.2241 29.0578 48.1127 29.3641C48.0007 29.6704 47.725 30.2969 47.5001 30.7564C47.2753 31.2158 46.82 31.9989 46.4887 32.4967C46.1573 32.9944 45.5949 33.7622 45.2391 34.2022C44.8834 34.6421 44.1859 35.4413 43.6882 35.9773C43.1912 36.5133 42.3649 37.3591 41.8525 37.8575C41.3395 38.3552 40.4025 39.2351 39.7711 39.8129C39.1397 40.3907 37.1189 42.2006 35.2811 43.8344C32.512 46.2966 31.8771 46.8291 31.5743 46.9433C31.3731 47.0184 31.0995 47.0804 30.9652 47.0804C30.8308 47.0804 30.5573 47.0073 30.3561 46.9182C30.1549 46.8291 29.8027 46.5841 29.573 46.3738C29.3432 46.1629 27.7303 44.7247 25.9886 43.1772C24.2469 41.6291 22.3987 39.9723 21.8815 39.4948C21.3643 39.0172 20.522 38.2181 20.0096 37.7197C19.4973 37.2205 18.7016 36.4054 18.2422 35.9077C17.7828 35.4099 17.0922 34.6108 16.7073 34.1325C16.3223 33.6536 15.7814 32.9178 15.5057 32.4967C15.2294 32.0755 14.8451 31.4337 14.6516 31.0696C14.4581 30.7062 14.1762 30.095 14.0244 29.7122C13.8726 29.3293 13.6819 28.7655 13.6012 28.4592C13.5204 28.1529 13.3923 27.55 13.3171 27.1191C13.2239 26.5908 13.1793 26.0241 13.18 25.3788C13.18 24.8526 13.2294 24.0931 13.2886 23.6907C13.3485 23.2884 13.4717 22.6619 13.5629 22.2985C13.6548 21.9351 13.8121 21.4179 13.9137 21.1499C14.0147 20.8819 14.2388 20.3807 14.4114 20.0361C14.5848 19.6915 14.8528 19.2216 15.008 18.9919C15.1633 18.7622 15.487 18.339 15.7271 18.0522C15.968 17.7647 16.3307 17.3867 16.5339 17.2112C16.7372 17.0358 17.0915 16.7539 17.3212 16.5847C17.551 16.4149 18.0208 16.1302 18.3654 15.9513C18.71 15.7724 19.2738 15.5308 19.6184 15.4139C19.963 15.2976 20.5895 15.1424 21.0107 15.0679C21.4318 14.9941 22.0897 14.9308 22.4725 14.9259ZM20.2999 16.4469C20.002 16.529 19.4757 16.733 19.1311 16.8994C18.7866 17.0658 18.254 17.3881 17.9477 17.6157C17.6414 17.8433 17.1709 18.2617 16.9015 18.5457C16.6321 18.829 16.2422 19.3121 16.0355 19.6184C15.8281 19.9247 15.5259 20.4573 15.363 20.8018C15.2008 21.1464 14.9864 21.6789 14.8876 21.9852C14.788 22.2915 14.6614 22.7691 14.6043 23.0468C14.5479 23.3246 14.4664 23.8724 14.4233 24.265C14.3801 24.659 14.3627 25.3371 14.3857 25.7791C14.408 26.219 14.4762 26.8616 14.5367 27.2061C14.5973 27.5507 14.7672 28.1932 14.914 28.6332C15.0609 29.0731 15.3686 29.8096 15.5983 30.2691C15.8281 30.7285 16.268 31.4803 16.5757 31.9398C16.8841 32.3992 17.3748 33.0724 17.6672 33.4364C17.9596 33.8005 18.5965 34.5335 19.0824 35.066C19.569 35.5986 20.5303 36.5724 21.2195 37.2296C21.9087 37.8874 22.8484 38.7694 23.3079 39.1892C23.7673 39.6096 25.4276 41.0931 26.9973 42.486C28.5671 43.8782 30.0554 45.2009 30.3039 45.425C30.6756 45.7592 30.7995 45.8316 31 45.8302C31.2214 45.8288 31.5478 45.5587 34.6198 42.8271C36.4771 41.1759 38.4819 39.3827 39.075 38.8425C39.6681 38.303 40.7812 37.2338 41.5483 36.4666C42.3147 35.6995 43.2267 34.743 43.5733 34.3414C43.9207 33.9397 44.4637 33.2659 44.7797 32.8447C45.0957 32.4236 45.519 31.8131 45.7202 31.4873C45.9213 31.1615 46.2513 30.567 46.4525 30.1647C46.6544 29.763 46.9391 29.0731 47.0853 28.6332C47.2314 28.1932 47.4006 27.5507 47.4612 27.2061C47.5217 26.8616 47.5906 26.219 47.6136 25.7791C47.6366 25.3322 47.6206 24.6632 47.5767 24.265C47.5336 23.8724 47.4521 23.3246 47.3957 23.0468C47.3386 22.7691 47.212 22.2915 47.1124 21.9852C47.0136 21.6789 46.7992 21.1464 46.637 20.8018C46.4741 20.4573 46.172 19.9247 45.9645 19.6184C45.7578 19.3121 45.3679 18.829 45.0985 18.5457C44.8291 18.2617 44.3586 17.8433 44.0523 17.6157C43.746 17.3881 43.2134 17.0651 42.8689 16.898C42.5243 16.7316 41.9291 16.5075 41.5462 16.401C40.8884 16.2179 40.7728 16.2074 39.4579 16.2109C38.3023 16.2137 37.9473 16.2395 37.3695 16.3641C36.9866 16.4469 36.3915 16.6133 36.0469 16.7344C35.7023 16.8555 35.1698 17.0797 34.8635 17.2321C34.5572 17.3853 34.0407 17.6867 33.7156 17.9032C33.3898 18.119 32.8252 18.5937 32.4598 18.9571C32.095 19.3212 31.6794 19.7674 31.5374 19.9491C31.3056 20.2456 31.2492 20.2797 31 20.2797C30.7508 20.2797 30.6944 20.2456 30.4626 19.9491C30.3206 19.7674 29.905 19.3205 29.5402 18.9571C29.1748 18.5937 28.6102 18.119 28.2844 17.9032C27.9593 17.6867 27.4428 17.3853 27.1365 17.2321C26.8302 17.0797 26.2977 16.8555 25.9531 16.7344C25.6085 16.6133 25.0287 16.4511 24.6653 16.3731C24.1829 16.2701 23.6657 16.2248 22.751 16.206C22.0618 16.1914 21.3504 16.2067 21.1701 16.2388C20.9898 16.2708 20.5986 16.3641 20.2999 16.4469ZM31.4177 21.514C31.7435 21.5307 32.2913 21.5898 32.6359 21.6455C32.9805 21.7019 33.5756 21.8523 33.9585 21.9797C34.3414 22.1071 34.9206 22.3451 35.2463 22.508C35.5721 22.6709 36.026 22.9306 36.2557 23.0851C36.4854 23.2397 36.908 23.562 37.1955 23.8014C37.4823 24.0409 37.9236 24.4822 38.1756 24.7816C38.4283 25.0816 38.7617 25.5146 38.917 25.7443C39.0722 25.974 39.3444 26.4599 39.5226 26.8233C39.7001 27.1867 39.8839 27.6008 39.9305 27.7436C40.012 27.9942 40.0287 28.0046 40.4672 28.0763C40.7158 28.1174 41.1077 28.242 41.3374 28.3534C41.5671 28.4647 41.8922 28.6903 42.06 28.8553C42.2277 29.0202 42.438 29.2646 42.5278 29.3989C42.6169 29.5333 42.7547 29.8305 42.8327 30.0602C42.9266 30.3352 42.9754 30.6561 42.9754 31C42.9754 31.3439 42.9266 31.6648 42.8327 31.9398C42.7547 32.1695 42.6169 32.4667 42.5278 32.6011C42.438 32.7354 42.2277 32.9798 42.06 33.1448C41.8922 33.3097 41.5671 33.5353 41.3374 33.6467C41.1077 33.758 40.7158 33.8826 40.4672 33.9237C40.0287 33.9954 40.012 34.0059 39.9305 34.2565C39.8839 34.3992 39.7001 34.8127 39.5226 35.1767C39.3444 35.5408 39.0722 36.026 38.917 36.2557C38.7617 36.4854 38.4283 36.9184 38.1756 37.2184C37.9236 37.5178 37.4823 37.9591 37.1955 38.1986C36.908 38.4381 36.4854 38.7604 36.2557 38.9149C36.026 39.0694 35.5721 39.3291 35.2463 39.492C34.9206 39.6549 34.3414 39.8929 33.9585 40.0203C33.5756 40.1477 32.9805 40.3023 32.6359 40.3642C32.2495 40.4331 31.6216 40.4763 31 40.4763C30.3784 40.4763 29.7505 40.4331 29.3641 40.3642C29.0195 40.3023 28.4244 40.1477 28.0415 40.0203C27.6586 39.8929 27.0794 39.6549 26.7537 39.492C26.4279 39.3284 25.9427 39.0458 25.6747 38.8641C25.4067 38.6817 24.9681 38.3413 24.7001 38.1081C24.4321 37.8742 24.0458 37.4878 23.8411 37.2484C23.6364 37.0082 23.31 36.5773 23.115 36.2905C22.9208 36.003 22.625 35.4865 22.4579 35.1419C22.2908 34.7973 22.1161 34.3992 22.0695 34.2565C21.988 34.0059 21.9713 33.9954 21.5328 33.9237C21.2835 33.8826 20.8923 33.7587 20.6626 33.6474C20.4329 33.5367 20.0786 33.2791 19.8753 33.0758C19.6679 32.8677 19.4082 32.5071 19.2836 32.253C19.0727 31.8242 19.0615 31.7595 19.0615 31C19.0615 30.2405 19.0727 30.1758 19.2836 29.747C19.4082 29.4929 19.6679 29.1323 19.8753 28.9242C20.0786 28.7209 20.4329 28.4633 20.6626 28.3527C20.8923 28.2413 21.2835 28.1174 21.5328 28.0763C21.9713 28.0046 21.988 27.9942 22.0695 27.7436C22.1161 27.6008 22.2999 27.1867 22.4774 26.8233C22.6556 26.4599 22.9278 25.974 23.083 25.7443C23.2383 25.5146 23.5717 25.0816 23.8244 24.7816C24.0764 24.4822 24.517 24.0409 24.8045 23.8014C25.0913 23.562 25.5146 23.2397 25.7443 23.0851C25.974 22.9306 26.4126 22.6786 26.7189 22.5247C27.0252 22.3709 27.5417 22.1509 27.8675 22.0368C28.1932 21.9219 28.6938 21.775 28.9813 21.711C29.2681 21.6462 29.8013 21.569 30.1647 21.539C30.528 21.5084 31.0919 21.4973 31.4177 21.514ZM28.2155 23.1742C27.928 23.2758 27.5055 23.4534 27.2758 23.5696C27.046 23.6852 26.6228 23.9386 26.336 24.1328C26.0485 24.327 25.5661 24.7224 25.2633 25.0106C24.9605 25.2995 24.5372 25.77 24.3228 26.0575C24.1091 26.345 23.8035 26.8302 23.6448 27.1365C23.4854 27.4428 23.2591 27.9754 23.1408 28.3199C23.0232 28.6645 22.8603 29.0091 22.7788 29.0857C22.6633 29.1943 22.5226 29.2277 22.1342 29.2388C21.7381 29.2507 21.562 29.2938 21.2682 29.4518C21.0497 29.5688 20.8067 29.7762 20.6717 29.9593C20.5464 30.1299 20.4071 30.4334 20.3619 30.6345C20.2985 30.9158 20.2985 31.0842 20.3619 31.3655C20.4071 31.5666 20.5401 31.8709 20.6577 32.0428C20.8011 32.2509 20.9981 32.4194 21.2543 32.551C21.5557 32.7062 21.743 32.7514 22.1342 32.7619C22.5226 32.7723 22.6633 32.805 22.7788 32.9143C22.8596 32.9909 23.0232 33.3355 23.1422 33.6801C23.2605 34.0246 23.452 34.4945 23.5668 34.7242C23.6824 34.954 23.9212 35.3612 24.098 35.6292C24.2748 35.8972 24.6702 36.3796 24.9772 36.7019C25.2842 37.0235 25.77 37.4628 26.0575 37.6765C26.3443 37.8909 26.8302 38.1965 27.1365 38.3552C27.4428 38.5139 27.9593 38.7374 28.2851 38.8522C28.6109 38.9671 29.1428 39.1126 29.4685 39.1752C29.8361 39.2456 30.4167 39.2894 31 39.2894C31.5833 39.2894 32.1639 39.2456 32.5315 39.1752C32.8573 39.1126 33.3891 38.9671 33.7149 38.8522C34.0407 38.7374 34.5572 38.5139 34.8635 38.3552C35.1698 38.1965 35.655 37.8909 35.9425 37.6765C36.2293 37.4628 36.7158 37.0235 37.0228 36.7019C37.3298 36.3796 37.7252 35.8972 37.902 35.6292C38.0788 35.3612 38.3176 34.954 38.4332 34.7242C38.548 34.4945 38.7395 34.0246 38.8578 33.6801C38.9768 33.3355 39.1404 32.9909 39.2212 32.9143C39.3367 32.805 39.4774 32.7723 39.8658 32.7619C40.257 32.7514 40.4443 32.7062 40.7457 32.551C41.0019 32.4194 41.1989 32.2509 41.3423 32.0428C41.4599 31.8709 41.5929 31.5666 41.6381 31.3655C41.7015 31.0842 41.7015 30.9158 41.6381 30.6345C41.5929 30.4334 41.4599 30.1292 41.3423 29.9572C41.1989 29.7484 41.0026 29.5813 40.7457 29.4497C40.4457 29.2959 40.2549 29.2507 39.8658 29.2388C39.4774 29.2277 39.3367 29.1943 39.2212 29.0857C39.1397 29.0091 38.9768 28.6645 38.8578 28.3199C38.7395 27.9754 38.5473 27.5055 38.4311 27.2758C38.3155 27.046 38.0628 26.6228 37.8707 26.336C37.6786 26.0492 37.2212 25.5125 36.8537 25.1442C36.4583 24.7468 35.9306 24.3082 35.5596 24.0673C35.215 23.8439 34.6672 23.5432 34.3414 23.3984C34.0156 23.2543 33.6947 23.1352 33.6279 23.1352C33.5172 23.1338 33.5213 23.1707 33.6738 23.5341C33.7657 23.7541 33.8785 24.185 33.9244 24.4913C33.9884 24.9236 33.9884 25.1415 33.9237 25.4658C33.8778 25.6956 33.7573 26.036 33.6557 26.2232C33.5541 26.4098 33.3459 26.6743 33.1928 26.8108C33.0396 26.9472 32.7417 27.1379 32.5315 27.2347C32.2245 27.376 32.0379 27.4115 31.5903 27.4129C31.1044 27.415 30.9735 27.3864 30.5809 27.1964C30.3136 27.0669 30.0199 26.8539 29.8605 26.6743C29.7122 26.5072 29.5333 26.2455 29.463 26.0924C29.3927 25.9392 29.3022 25.6496 29.2625 25.4484C29.2047 25.1561 29.211 25.0342 29.2945 24.8393C29.3579 24.6918 29.4748 24.5672 29.5904 24.5226C29.6955 24.4829 29.8681 24.4669 29.9732 24.4878C30.0783 24.5087 30.2085 24.5964 30.2628 24.6827C30.3164 24.769 30.3951 25.0196 30.4368 25.2396C30.4953 25.5466 30.5691 25.6963 30.7564 25.8835C30.9018 26.029 31.119 26.1571 31.2959 26.2009C31.4587 26.242 31.6857 26.2545 31.8005 26.2288C31.9154 26.203 32.1034 26.1258 32.2182 26.0575C32.3331 25.99 32.4876 25.8445 32.5607 25.7345C32.6345 25.6253 32.7194 25.4262 32.75 25.2918C32.7807 25.1568 32.773 24.8463 32.7333 24.5957C32.6944 24.3472 32.6073 24.0179 32.5405 23.8648C32.4737 23.7116 32.2955 23.4492 32.1444 23.2821C31.9934 23.1143 31.7525 22.9187 31.6091 22.847C31.4044 22.7447 31.2012 22.7176 30.6693 22.721C30.2907 22.7238 29.7136 22.7844 29.3641 22.8575C29.0195 22.9299 28.5023 23.0726 28.2155 23.1742ZM31.1392 31.0202C33.1837 31.0341 33.3529 31.0446 33.6453 31.1775C33.8179 31.2562 34.0678 31.4017 34.2022 31.5005C34.3365 31.5994 34.5627 31.8486 34.7048 32.0539C34.8572 32.2732 35.011 32.6136 35.0786 32.8795C35.1746 33.2617 35.1802 33.4079 35.1113 33.8193C35.0667 34.0873 34.9254 34.5259 34.7973 34.7939C34.6546 35.0939 34.4186 35.428 34.1854 35.664C33.9766 35.8742 33.6926 36.1095 33.5555 36.1861C33.3668 36.2905 33.2659 36.42 33.1489 36.7082C33.0529 36.9435 32.8566 37.2261 32.6401 37.4419C32.4027 37.6786 32.1521 37.845 31.8702 37.9529C31.5304 38.0823 31.3488 38.1081 30.8956 38.0886C30.4814 38.0705 30.2496 38.0204 29.9906 37.8937C29.7992 37.8004 29.4999 37.5811 29.3258 37.4071C29.1497 37.231 28.9374 36.9212 28.8483 36.7082C28.7153 36.3922 28.6207 36.2829 28.3053 36.0817C28.0951 35.9473 27.7965 35.6814 27.6419 35.49C27.4874 35.2985 27.2723 34.954 27.1644 34.7242C27.0565 34.4945 26.9319 34.0873 26.8873 33.8193C26.8205 33.4093 26.8254 33.2603 26.9214 32.8795C26.9848 32.631 27.1421 32.2704 27.2709 32.079C27.4004 31.8876 27.6865 31.6056 27.9071 31.4525C28.1271 31.2993 28.4515 31.1357 28.6269 31.0898C28.8518 31.0299 29.5973 31.0091 31.1392 31.0202ZM28.2949 32.6547C28.2225 32.7591 28.1285 32.9777 28.0853 33.1406C28.029 33.3529 28.0276 33.5297 28.0805 33.7671C28.1208 33.9488 28.2274 34.223 28.3165 34.3762C28.4063 34.5293 28.5455 34.7173 28.6262 34.7939C28.707 34.8704 28.7808 34.9171 28.7905 34.8983C28.7996 34.8795 28.8699 34.7417 28.9464 34.5927C29.023 34.4437 29.25 34.1694 29.4511 33.9836C29.731 33.7246 29.9266 33.6125 30.2865 33.5046C30.5447 33.4274 30.8656 33.364 31 33.364C31.1344 33.364 31.4553 33.4274 31.7135 33.5046C32.0734 33.6125 32.269 33.7246 32.5489 33.9836C32.75 34.1694 32.977 34.4437 33.0536 34.5927C33.1301 34.7417 33.2011 34.8795 33.2109 34.8983C33.2206 34.9171 33.323 34.8391 33.4378 34.7242C33.5534 34.6094 33.7135 34.3588 33.7949 34.1674C33.8764 33.9759 33.9453 33.6627 33.9481 33.4712C33.9516 33.2318 33.9042 33.0362 33.7963 32.8447C33.71 32.6916 33.5262 32.4883 33.387 32.3922L33.1336 32.2182C29.1212 32.1806 29.0007 32.1869 28.7216 32.3219C28.5594 32.4006 28.3673 32.5503 28.2949 32.6547ZM30.2085 34.8816C30.0985 34.9867 29.9649 35.1739 29.9127 35.2985C29.8598 35.4232 29.8166 35.6341 29.8166 35.7684C29.8166 35.9028 29.8792 36.1374 29.9558 36.2905C30.0324 36.4437 30.1967 36.6393 30.3213 36.7256C30.4995 36.8488 30.6443 36.8822 31 36.8822C31.3557 36.8822 31.5005 36.8488 31.6787 36.7256C31.8033 36.6393 31.9676 36.4437 32.0442 36.2905C32.1208 36.1374 32.1834 35.9028 32.1834 35.7684C32.1834 35.6341 32.1402 35.4232 32.0873 35.2985C32.0351 35.1739 31.9015 34.9902 31.7915 34.8906C31.6815 34.7904 31.4824 34.672 31.3481 34.6282C31.2137 34.5843 31.0418 34.5509 30.9652 34.5551C30.8886 34.5593 30.732 34.5913 30.6171 34.6261C30.5023 34.6616 30.3185 34.7765 30.2085 34.8816Z" fill="white"/>
</svg>
