<svg width="62" height="62" viewBox="0 0 62 62" fill="none" xmlns="http://www.w3.org/2000/svg">
<path d="M31 10C28.2 10 26 12.2 26 15C26 17.8 28.2 20 31 20C33.8 20 36 17.8 36 15C36 12.2 33.8 10 31 10ZM31 17C29.9 17 29 16.1 29 15C29 13.9 29.9 13 31 13C32.1 13 33 13.9 33 15C33 16.1 32.1 17 31 17ZM22 28C19.2 28 17 30.2 17 33C17 35.8 19.2 38 22 38C24.8 38 27 35.8 27 33C27 30.2 24.8 28 22 28ZM22 35C20.9 35 20 34.1 20 33C20 31.9 20.9 31 22 31C23.1 31 24 31.9 24 33C24 34.1 23.1 35 22 35ZM40 28C37.2 28 35 30.2 35 33C35 35.8 37.2 38 40 38C42.8 38 45 35.8 45 33C45 30.2 42.8 28 40 28ZM40 35C38.9 35 38 34.1 38 33C38 31.9 38.9 31 40 31C41.1 31 42 31.9 42 33C42 34.1 41.1 35 40 35ZM31 22C25.5 22 21 26.5 21 32V42C21 43.1 21.9 44 23 44H24V50C24 51.1 24.9 52 26 52H27V54H29V52H33V54H35V52H36C37.1 52 38 51.1 38 50V44H39C40.1 44 41 43.1 41 42V32C41 26.5 36.5 22 31 22ZM38 41H24V32C24 28.1 27.1 25 31 25C34.9 25 38 28.1 38 32V41Z" fill="currentColor"/>
</svg>
