<svg width="62" height="62" viewBox="0 0 62 62" fill="none" xmlns="http://www.w3.org/2000/svg">
<path d="M34.1762 16.4407C37.4781 15.4957 43.9154 16.8258 46.1987 24.8099C47.3786 28.9361 45.642 32.5563 43.0737 35.2581C40.6724 37.784 37.4626 39.6068 34.8979 40.4466L34.394 40.6009C29.9532 41.871 27.2659 41.2243 25.3764 40.2747C24.9173 40.044 24.5149 39.8005 24.1616 39.5784C23.7964 39.3489 23.5116 39.1615 23.2348 39.0032C22.7547 38.7288 22.4753 38.6521 22.2328 38.6888L22.1303 38.7112C21.8354 38.7955 21.7218 38.9172 21.6694 39.0081C21.6095 39.1122 21.5668 39.2879 21.6069 39.5687C21.6901 40.1512 22.0972 40.9347 22.7348 41.6634C23.3634 42.3814 23.3937 43.2982 23.0239 44.054C22.6628 44.7918 21.9343 45.3772 21.0131 45.639L21.0121 45.638L20.8862 45.678C20.8807 45.6798 20.8751 45.6813 20.8696 45.6829C19.9184 45.954 18.8129 45.8489 18.059 45.2142C17.0721 44.3827 16.1805 43.1155 15.6586 41.2894L15.6596 41.2884C15.2793 39.9591 15.3364 38.0515 15.9975 36.3236C16.667 34.5739 17.9937 32.9204 20.2172 32.2835C21.8956 31.804 23.103 32.1577 24.1469 32.4564C25.1606 32.7464 26.0147 32.983 27.2651 32.6253C28.633 32.234 29.62 31.6124 30.1967 30.9417C30.7279 30.3239 30.9004 29.6879 30.7709 29.0921L30.7407 28.973C30.5591 28.3387 30.1539 27.7857 29.5424 27.2445C28.9233 26.6964 28.139 26.1992 27.2475 25.6546C25.5175 24.5979 23.3883 23.38 22.0434 21.3782L22.0424 21.3773C21.831 21.0612 21.6803 20.7102 21.6557 20.3333C21.6301 19.9415 21.7448 19.582 21.9623 19.2786C22.3635 18.7193 23.0845 18.3861 23.8403 18.1673H23.8422C24.2483 18.0512 24.8581 17.832 25.3871 17.7571C25.9732 17.6743 26.6611 17.7273 27.2534 18.262C27.8658 18.8153 28.4964 19.402 29.4008 20.0316C29.6312 19.723 29.9492 19.3282 30.3471 18.9105C31.2201 17.9939 32.5269 16.9128 34.1762 16.4407ZM44.7573 25.222C42.7191 18.0949 37.1554 17.1474 34.5883 17.8821C33.3032 18.2501 32.2182 19.1203 31.433 19.9446C31.0456 20.3514 30.7438 20.7343 30.5395 21.014C30.4376 21.1535 30.3604 21.2667 30.31 21.3431C30.2848 21.3812 30.266 21.4106 30.2543 21.429C30.2486 21.4381 30.2449 21.4448 30.2426 21.4486C30.2415 21.4504 30.24 21.452 30.2397 21.4525L30.2407 21.4515C30.1366 21.6236 29.9676 21.7468 29.7719 21.7933C29.5762 21.8397 29.3699 21.8055 29.1996 21.6986C27.8328 20.8387 26.9791 20.0353 26.2485 19.3753C26.1061 19.2467 25.9329 19.195 25.5971 19.2425C25.2039 19.2981 24.8293 19.4455 24.2553 19.6097L24.2543 19.6087C23.5704 19.8071 23.2748 20.0237 23.1821 20.1527C23.1529 20.1934 23.1513 20.2132 23.1528 20.2357C23.1552 20.2732 23.175 20.3723 23.2885 20.5423L23.5073 20.8489C24.6381 22.347 26.3269 23.3342 28.0297 24.3743C28.9113 24.9129 29.8046 25.4735 30.5366 26.1214C31.276 26.776 31.8953 27.558 32.1821 28.5589C32.5297 29.7688 32.1609 30.9591 31.3344 31.9202C30.5179 32.8698 29.2455 33.6191 27.6772 34.0677C25.9912 34.5499 24.7808 34.198 23.7348 33.8987C22.7191 33.6081 21.8704 33.3705 20.6293 33.7249C18.9724 34.1996 17.9458 35.4277 17.3979 36.8597C16.8766 38.2222 16.8235 39.6917 17.0522 40.6849L17.101 40.8773L17.1879 41.1634C17.6384 42.5602 18.3279 43.4794 19.0248 44.0667C19.2918 44.2915 19.8339 44.4151 20.4506 44.2415L20.5854 44.2005L20.603 44.1956C21.1716 44.034 21.5277 43.7003 21.6772 43.3948C21.8002 43.1434 21.79 42.9192 21.6664 42.7308L21.6059 42.6517C20.8666 41.8069 20.2616 40.7613 20.1215 39.7806C20.05 39.2797 20.0938 38.7392 20.3696 38.2601C20.6529 37.768 21.1249 37.4385 21.7182 37.2689C22.5966 37.0176 23.3489 37.3398 23.9799 37.7005C24.2929 37.8795 24.6332 38.1038 24.9594 38.3089C25.2976 38.5215 25.6538 38.7357 26.0502 38.9349C27.5832 39.7053 29.8804 40.3321 33.9809 39.1595L34.4399 39.0179C36.779 38.2504 39.7688 36.558 41.9867 34.2249C44.3455 31.7437 45.738 28.6515 44.7573 25.222Z" fill="white"/>
</svg>
