<svg width="62" height="62" viewBox="0 0 62 62" fill="none" xmlns="http://www.w3.org/2000/svg">
<path d="M38.9867 33.3706C38.9867 31.3103 40.0399 29.6227 41.0414 28.0259C42.072 26.3828 43.108 24.757 43.4779 22.6392C43.9732 19.8016 43.1427 17.9365 41.933 16.7671C40.6881 15.5638 38.9731 15.0328 37.6459 15.0328C36.9046 15.0328 36.0468 15.2896 34.8851 15.6031C33.7715 15.9036 32.4624 16.2261 30.9994 16.2261C29.5362 16.2261 28.2263 15.9036 27.1127 15.6031C25.9513 15.2896 25.0935 15.0328 24.3529 15.0328C23.0246 15.0328 21.3101 15.564 20.0658 16.7671C18.8565 17.9365 18.027 19.8015 18.5218 22.6392L18.599 23.0308C19.0213 24.9603 19.9913 26.4855 20.9574 28.0259C21.9589 29.6227 23.0131 31.3103 23.0131 33.3706C23.0131 35.3746 22.6665 36.4538 22.3217 37.5679C21.9951 38.623 21.6586 39.7413 21.5912 41.9312C21.4503 46.481 23.4391 46.9631 23.5521 46.9634C23.9648 46.9634 24.3601 47.0132 24.8295 46.6021C25.344 46.1514 26.0396 45.0409 26.4984 42.3003C27.0478 39.0122 28.0366 37.2953 29.017 36.4087C29.5097 35.9631 29.9852 35.7419 30.3646 35.6382C30.5522 35.587 30.7123 35.5658 30.8343 35.5581C30.8953 35.5543 30.9468 35.5542 30.9877 35.5552H31.0111C31.0519 35.5542 31.1035 35.5543 31.1644 35.5581C31.2865 35.566 31.4466 35.5879 31.6341 35.6392C32.0135 35.7431 32.489 35.964 32.9818 36.4097C33.9623 37.2966 34.9509 39.0135 35.5004 42.3003C35.9591 45.0409 36.6556 46.1514 37.1703 46.6021C37.6397 47.013 38.0347 46.9634 38.4466 46.9634C38.5576 46.9634 40.5485 46.4832 40.4076 41.9322C40.3397 39.7419 40.0036 38.6231 39.6771 37.5679C39.3324 36.4537 38.9867 35.3746 38.9867 33.3706ZM22.3148 19.0064C22.5812 18.6892 23.0543 18.6482 23.3715 18.9146C23.6886 19.181 23.7306 19.654 23.4642 19.9712C23.141 20.3561 22.958 21.0522 23.1644 22.2349C23.3917 23.5335 24.075 24.6417 24.9867 26.0943C25.2139 26.4558 25.4501 26.8314 25.683 27.2212C25.8954 27.5768 25.7788 28.0381 25.4232 28.2505C25.0676 28.4628 24.6073 28.3463 24.3949 27.9908C24.1716 27.6169 23.944 27.2541 23.7172 26.8931C22.837 25.4908 21.9737 24.1327 21.6869 22.4937C21.4475 21.123 21.5772 19.8849 22.3148 19.0064ZM40.4867 33.3706C40.4867 35.1479 40.7801 36.056 41.1107 37.1246C41.4596 38.252 41.834 39.512 41.9076 41.8853C42.0597 46.7957 39.8221 48.4634 38.4466 48.4634C38.1152 48.4635 37.1354 48.5648 36.182 47.73C35.3303 46.9842 34.5956 45.5892 34.1136 43.0669L34.0209 42.5474C33.5009 39.4372 32.6089 38.0945 31.9759 37.522C31.6622 37.2383 31.3975 37.1291 31.2386 37.0855C31.1573 37.0632 31.098 37.0571 31.0687 37.0552C31.057 37.0545 31.05 37.0542 31.0482 37.0542C31.0492 37.0542 31.0521 37.0545 31.056 37.0542C31.0583 37.0541 31.0615 37.0535 31.0648 37.0533C31.0663 37.0531 31.068 37.0534 31.0697 37.0533L31.0726 37.0523C31.0232 37.0572 30.9736 37.0572 30.9242 37.0523C30.9252 37.0524 30.9262 37.0532 30.9271 37.0533C30.9292 37.0535 30.9312 37.0531 30.933 37.0533C30.9364 37.0536 30.9394 37.0541 30.9418 37.0542C30.9464 37.0545 30.9491 37.0542 30.9496 37.0542C30.9496 37.0542 30.9419 37.0543 30.9281 37.0552C30.8988 37.0571 30.8401 37.0634 30.7591 37.0855C30.6006 37.1288 30.3363 37.2376 30.0228 37.521C29.4299 38.0573 28.6083 39.2704 28.0795 41.9839L27.9779 42.5474C27.5004 45.4001 26.726 46.9344 25.8177 47.73C24.8642 48.5651 23.8837 48.4634 23.5521 48.4634C22.1755 48.4633 19.94 46.7955 20.0922 41.8853C20.1652 39.5121 20.5391 38.2521 20.8881 37.1246C21.2188 36.0559 21.5131 35.1478 21.5131 33.3706C21.5131 31.8088 20.7259 30.4794 19.6869 28.8228C18.7401 27.3132 17.622 25.5803 17.1332 23.3501L17.0443 22.897C16.4708 19.6083 17.4293 17.2307 19.0238 15.689C20.5832 14.1813 22.6877 13.5328 24.3529 13.5328C25.3464 13.5328 26.4552 13.8727 27.5043 14.1558C28.6011 14.4518 29.7479 14.7261 30.9994 14.7261C32.2509 14.7261 33.3974 14.4519 34.4945 14.1558C35.5437 13.8726 36.6519 13.5328 37.6459 13.5328C39.3102 13.5328 41.4152 14.1813 42.975 15.689C44.5698 17.2306 45.5295 19.6082 44.9554 22.897C44.5274 25.3479 43.3228 27.2125 42.3129 28.8228C41.2738 30.4795 40.4867 31.8088 40.4867 33.3706Z" fill="white"/>
</svg>
