<svg width="62" height="62" viewBox="0 0 62 62" fill="none" xmlns="http://www.w3.org/2000/svg">
<path d="M38.9868 33.3707C38.9868 31.3104 40.04 29.6227 41.0415 28.0259C42.072 26.3828 43.1081 24.757 43.478 22.6392C43.9733 19.8017 43.1428 17.9365 41.9331 16.7672C40.6882 15.5639 38.9732 15.0328 37.646 15.0328C36.9047 15.0328 36.0469 15.2896 34.8852 15.6031C33.7716 15.9036 32.4625 16.2261 30.9995 16.2261C29.5363 16.2261 28.2264 15.9037 27.1128 15.6031C25.9514 15.2896 25.0936 15.0328 24.353 15.0328C23.0247 15.0329 21.3102 15.5641 20.0659 16.7672C18.8566 17.9365 18.0271 19.8015 18.5219 22.6392L18.5991 23.0308C19.0214 24.9603 19.9914 26.4856 20.9575 28.0259C21.959 29.6228 23.0131 31.3103 23.0131 33.3707C23.0131 35.3746 22.6666 36.4538 22.3217 37.5679C21.9952 38.623 21.6587 39.7413 21.5913 41.9312C21.4504 46.481 23.4392 46.9631 23.5522 46.9634C23.9649 46.9634 24.3601 47.0132 24.8296 46.6021C25.3441 46.1514 26.0397 45.0409 26.4985 42.3004C27.0479 39.0122 28.0366 37.2954 29.0171 36.4088C29.5098 35.9632 29.9853 35.7419 30.3647 35.6382C30.5522 35.5871 30.7124 35.5659 30.8344 35.5582C30.8954 35.5543 30.9469 35.5542 30.9878 35.5552H31.0112C31.052 35.5542 31.1036 35.5543 31.1645 35.5582C31.2866 35.566 31.4467 35.5879 31.6342 35.6392C32.0136 35.7431 32.4891 35.9641 32.9819 36.4097C33.9624 37.2966 34.951 39.0136 35.5005 42.3004C35.9592 45.0409 36.6557 46.1514 37.1704 46.6021C37.6398 47.013 38.0348 46.9635 38.4467 46.9634C38.5577 46.9634 40.5486 46.4832 40.4077 41.9322C40.3398 39.7419 40.0037 38.6232 39.6772 37.5679C39.3325 36.4538 38.9868 35.3746 38.9868 33.3707ZM22.3149 19.0064C22.5813 18.6892 23.0544 18.6482 23.3715 18.9146C23.6887 19.181 23.7307 19.6541 23.4643 19.9713C23.141 20.3562 22.9581 21.0522 23.1645 22.2349C23.3918 23.5336 24.0751 24.6417 24.9868 26.0943C25.214 26.4558 25.4502 26.8314 25.6831 27.2213C25.8955 27.5769 25.7789 28.0381 25.4233 28.2505C25.0677 28.4628 24.6074 28.3463 24.395 27.9908C24.1717 27.617 23.9441 27.2541 23.7172 26.8931C22.8371 25.4908 21.9738 24.1327 21.687 22.4937C21.4476 21.123 21.5773 19.8849 22.3149 19.0064ZM40.4868 33.3707C40.4868 35.1479 40.7802 36.056 41.1108 37.1246C41.4597 38.252 41.8341 39.512 41.9077 41.8853C42.0598 46.7958 39.8222 48.4634 38.4467 48.4634C38.1153 48.4635 37.1355 48.5648 36.1821 47.73C35.3304 46.9842 34.5956 45.5892 34.1137 43.067L34.021 42.5474C33.501 39.4372 32.609 38.0945 31.976 37.522C31.6623 37.2383 31.3976 37.1291 31.2387 37.0855C31.1574 37.0632 31.0981 37.0571 31.0688 37.0552C31.0571 37.0545 31.0501 37.0542 31.0483 37.0543C31.0493 37.0542 31.0522 37.0545 31.0561 37.0543C31.0584 37.0541 31.0616 37.0536 31.0649 37.0533C31.0664 37.0532 31.0681 37.0534 31.0698 37.0533L31.0727 37.0523C31.0233 37.0572 30.9737 37.0573 30.9243 37.0523C30.9253 37.0524 30.9262 37.0532 30.9272 37.0533C30.9292 37.0535 30.9313 37.0531 30.9331 37.0533C30.9365 37.0536 30.9395 37.0541 30.9419 37.0543C30.9465 37.0546 30.9492 37.0542 30.9497 37.0543C30.9497 37.0543 30.942 37.0544 30.9282 37.0552C30.8989 37.0571 30.8402 37.0634 30.7592 37.0855C30.6007 37.1289 30.3364 37.2376 30.0229 37.5211C29.43 38.0573 28.6083 39.2704 28.0796 41.9839L27.978 42.5474C27.5005 45.4001 26.7261 46.9344 25.8178 47.73C24.8643 48.5652 23.8838 48.4634 23.5522 48.4634C22.1756 48.4634 19.9401 46.7955 20.0922 41.8853C20.1653 39.5121 20.5392 38.2521 20.8881 37.1246C21.2189 36.056 21.5131 35.1478 21.5131 33.3707C21.5131 31.8088 20.726 30.4794 19.687 28.8228C18.7402 27.3132 17.6221 25.5803 17.1333 23.3502L17.0444 22.897C16.4709 19.6083 17.4294 17.2307 19.0239 15.689C20.5833 14.1813 22.6878 13.5329 24.353 13.5328C25.3465 13.5328 26.4553 13.8727 27.5044 14.1558C28.6012 14.4519 29.748 14.7261 30.9995 14.7261C32.251 14.7261 33.3975 14.4519 34.4946 14.1558C35.5438 13.8727 36.652 13.5328 37.646 13.5328C39.3103 13.5328 41.4152 14.1813 42.9751 15.689C44.5699 17.2307 45.5296 19.6082 44.9555 22.897C44.5275 25.3479 43.3229 27.2126 42.313 28.8228C41.2739 30.4795 40.4868 31.8088 40.4868 33.3707Z" fill="white"/>
</svg>
