<svg width="62" height="62" viewBox="0 0 62 62" fill="none" xmlns="http://www.w3.org/2000/svg">
<path d="M20.144 35.3959C20.4451 35.1118 20.9192 35.1254 21.2036 35.4262C24.7972 39.2304 28.4695 42.8638 30.6157 44.8891C32.76 42.8661 36.4297 39.2369 40.0171 35.437C40.3014 35.1358 40.7764 35.1224 41.0776 35.4067C41.3788 35.691 41.3923 36.166 41.1079 36.4672C37.1976 40.6093 33.1874 44.5558 31.1265 46.4692C30.8387 46.7363 30.3937 46.7362 30.106 46.4692C28.0428 44.5535 24.0304 40.6027 20.1138 36.4565C19.8293 36.1554 19.8429 35.6804 20.144 35.3959ZM27.2642 23.5034C27.5866 23.5168 27.8643 23.7352 27.9536 24.0453L31.2622 35.5366L34.7339 28.0346C34.8467 27.7909 35.0816 27.6265 35.3491 27.603C35.6167 27.5795 35.8762 27.7009 36.0298 27.9213L38.5386 31.52H48.0698C48.4838 31.5201 48.8196 31.856 48.8198 32.27C48.8198 32.6841 48.4839 33.0198 48.0698 33.02H38.147C37.9019 33.02 37.672 32.9006 37.5317 32.6996L35.5454 29.85L31.7788 37.9926C31.6473 38.2768 31.3528 38.4492 31.0405 38.4252C30.7284 38.4012 30.4641 38.186 30.3774 37.8852L27.1333 26.6205L24.937 32.393C24.8262 32.6838 24.5471 32.8764 24.2358 32.8764H13.9731C13.5593 32.8762 13.2233 32.5403 13.2231 32.1264C13.2231 31.7123 13.5591 31.3767 13.9731 31.3764H23.7192L26.5317 23.9858L26.5835 23.8774C26.7213 23.6385 26.9822 23.4916 27.2642 23.5034ZM46.5513 24.6088C46.5513 23.3631 46.0916 21.3904 44.8794 19.7475C43.6922 18.1384 41.7765 16.8305 38.7739 16.8305C35.7615 16.8306 33.9181 18.1097 32.814 19.3696C32.2553 20.0071 31.8812 20.646 31.6479 21.1245C31.5316 21.3631 31.4511 21.5603 31.4009 21.6938C31.3759 21.7602 31.3588 21.8112 31.3481 21.8432C31.3429 21.8589 31.3394 21.87 31.3374 21.8764L31.3354 21.8823V21.8813C31.3355 21.8812 31.3357 21.8807 31.3345 21.8803C31.2407 22.1994 30.9493 22.4191 30.6167 22.4194C30.2838 22.4194 29.9907 22.1998 29.897 21.8803V21.8823C29.8967 21.8815 29.8959 21.8793 29.895 21.8764C29.893 21.87 29.8895 21.8588 29.8843 21.8432C29.8736 21.8112 29.8566 21.7603 29.8315 21.6938C29.7813 21.5605 29.7008 21.3638 29.5845 21.1254C29.3512 20.6475 28.9771 20.0093 28.4185 19.3725C27.3144 18.1139 25.4711 16.8364 22.4585 16.8364C19.4562 16.8364 17.5406 18.1448 16.353 19.7543C15.1406 21.3977 14.6802 23.3698 14.6802 24.6137C14.6802 25.7466 14.9227 27.0346 15.5952 28.4536C15.7725 28.8278 15.613 29.2752 15.2388 29.4526C14.8646 29.6296 14.4171 29.4693 14.2397 29.0952C13.4731 27.4774 13.1802 25.9706 13.1802 24.6137C13.1802 23.0822 13.7246 20.7903 15.146 18.8637C16.5925 16.9033 18.9411 15.3364 22.4585 15.3364C25.9656 15.3364 28.2016 16.8502 29.5464 18.3832C30.0007 18.9012 30.3497 19.4194 30.6147 19.8764C30.88 19.4184 31.231 18.8996 31.686 18.3803C33.0308 16.8459 35.2666 15.3306 38.7739 15.3305C42.2913 15.3305 44.6401 16.8967 46.0864 18.8569C47.5077 20.7833 48.0513 23.0759 48.0513 24.6088C48.0512 26.0133 47.7376 27.5765 46.9116 29.2573C46.7289 29.6289 46.2794 29.7817 45.9077 29.5991C45.5361 29.4163 45.3823 28.9669 45.5649 28.5952C46.291 27.1177 46.5512 25.781 46.5513 24.6088Z" fill="white"/>
</svg>
