<svg width="62" height="62" viewBox="0 0 62 62" fill="none" xmlns="http://www.w3.org/2000/svg">
<path d="M31 10C26 10 22 14 22 19V21H20V38C20 41.3 22.7 44 26 44H28C28 46.8 30.2 49 33 49H38V47H33C31.3 47 30 45.7 30 44H36C39.3 44 42 41.3 42 38V21H40V19C40 14 36 10 31 10ZM25 19C25 15.7 27.7 13 31 13C34.3 13 37 15.7 37 19V21H25V19ZM39 38C39 39.7 37.7 41 36 41H26C24.3 41 23 39.7 23 38V24H39V38ZM27 26C25.9 26 25 26.9 25 28V36C25 37.1 25.9 38 27 38C28.1 38 29 37.1 29 36V28C29 26.9 28.1 26 27 26ZM31 26C29.9 26 29 26.9 29 28V36C29 37.1 29.9 38 31 38C32.1 38 33 37.1 33 36V28C33 26.9 32.1 26 31 26ZM35 26C33.9 26 33 26.9 33 28V36C33 37.1 33.9 38 35 38C36.1 38 37 37.1 37 36V28C37 26.9 36.1 26 35 26Z" fill="currentColor"/>
</svg>
