<svg width="62" height="62" viewBox="0 0 62 62" fill="none" xmlns="http://www.w3.org/2000/svg">
<path d="M40.84 18.7158C40.84 16.9471 40.5353 16.2048 40.257 15.9024C40.0398 15.6664 39.6663 15.5244 38.7922 15.6377C38.3121 15.6999 37.7897 15.8221 37.1984 15.9746L36.5842 16.1367H36.5813C36.2498 16.2245 35.8974 16.3175 35.5207 16.4121C34.2268 16.7373 32.7393 17.0488 31.1545 17.0488L30.5647 17.0352C29.2005 16.9712 27.9196 16.6966 26.7873 16.4121L25.7249 16.1367C24.8716 15.9108 24.1559 15.7207 23.5159 15.6377C22.6419 15.5245 22.2682 15.6663 22.051 15.9024C21.7728 16.2048 21.4681 16.9471 21.468 18.7158L21.4807 19.3399C21.6037 22.433 22.6366 25.1626 24.218 27.1876C24.3476 27.3535 24.4807 27.5147 24.6174 27.671C26.2562 29.5436 28.3957 30.7101 30.6926 30.8487L31.1545 30.8634C33.3853 30.8633 35.4908 29.8896 37.1652 28.2305L37.4943 27.8897C37.6109 27.7635 37.7254 27.6341 37.8371 27.501L38.1652 27.0919C39.8092 24.9404 40.84 22.0162 40.84 18.7158ZM42.716 19.4092C42.5762 22.8569 41.3996 26.0389 39.5227 28.4317C39.7148 29.3133 39.8276 30.4655 39.6936 31.6827L39.6555 31.9845C39.4381 33.5 38.8151 35.143 37.4211 36.4444L37.1408 36.7052C35.6723 38.0745 34.8806 38.8138 34.382 39.6993L34.2912 39.8683C33.8532 40.7305 33.6437 41.8413 33.5891 43.9874L33.5442 46.2033C33.5368 46.7662 33.5359 47.1666 33.5393 47.4435C33.5407 47.5607 33.5427 47.6528 33.5451 47.7238C33.592 47.8723 33.603 48.0357 33.5705 48.1994C33.5654 48.225 33.5484 48.3114 33.508 48.4084L33.4475 48.5295C33.4128 48.5881 33.3622 48.6601 33.2912 48.7297L33.218 48.7941C33.1324 48.8622 33.0068 48.9385 32.8401 48.9767L32.7492 48.9924C32.5975 49.0117 32.4519 48.9932 32.3225 48.9484L32.176 48.883C31.8943 48.7277 31.7846 48.4801 31.7658 48.4377L31.7649 48.4347C31.7298 48.3565 31.712 48.2894 31.7043 48.258C31.6878 48.1903 31.6799 48.1288 31.676 48.0949C31.6604 47.9593 31.6521 47.7485 31.6487 47.466C31.6416 46.8745 31.6522 45.7979 31.6994 43.9386C31.7556 41.7306 31.9684 40.2658 32.6047 39.0079L32.7375 38.7589C33.3878 37.6037 34.404 36.6583 35.7512 35.4054L36.1369 35.047C37.201 34.0537 37.6735 32.754 37.8147 31.4727C37.8635 31.0291 37.8723 30.5956 37.8527 30.1905C35.9822 31.8065 33.683 32.7686 31.1545 32.7686L30.6711 32.7569C28.2717 32.6397 26.0959 31.6531 24.3196 30.0704C24.2922 30.5094 24.2961 30.9849 24.3499 31.4727C24.491 32.7541 24.9645 34.0537 26.0286 35.047C26.1598 35.1695 26.2888 35.2886 26.4143 35.4054C27.7614 36.6583 28.7767 37.6038 29.427 38.7589C30.1673 40.0739 30.4061 41.5832 30.466 43.9386C30.5133 45.7979 30.523 46.8745 30.5159 47.466C30.5124 47.7485 30.5051 47.9593 30.4895 48.0949C30.4856 48.1288 30.4777 48.1903 30.4612 48.258C30.4535 48.2894 30.4357 48.3565 30.4006 48.4347L30.3996 48.4377C30.3809 48.4801 30.2712 48.7277 29.9895 48.883L29.843 48.9484C29.7136 48.9933 29.568 49.0117 29.4162 48.9924L29.3244 48.9767C29.1019 48.9257 28.9533 48.807 28.8743 48.7297C28.7339 48.5923 28.6723 48.4439 28.6575 48.4084C28.6372 48.3598 28.6226 48.3138 28.6125 48.2765L28.594 48.1984C28.5615 48.0347 28.5735 47.8723 28.6203 47.7238L28.6262 47.4435C28.6295 47.1666 28.6287 46.7662 28.6213 46.2033L28.5764 43.9874C28.5218 41.8414 28.3123 40.7305 27.8743 39.8683L27.7834 39.6993C27.2849 38.8138 26.4922 38.0745 25.0237 36.7052L24.7444 36.4444C23.3503 35.143 22.7274 33.5001 22.51 31.9845L22.4719 31.6827C22.3305 30.3985 22.4626 29.1862 22.6741 28.2882C20.8596 25.9094 19.7257 22.7806 19.5911 19.3965L19.5784 18.7158C19.5784 17.7153 19.6629 16.8478 19.8675 16.125C19.2058 15.9074 18.378 15.6697 17.5413 15.46C16.2107 15.1264 15.0209 14.9053 14.4983 14.9053C13.8839 14.9053 13.4408 14.9851 13.0667 15.1572C12.6974 15.3272 12.3207 15.622 11.8978 16.1699C11.7904 16.3092 11.5915 16.7332 11.4759 17.4483L11.4388 17.7129C11.3633 18.35 11.3667 19.1164 11.514 19.9483C11.8185 21.6689 12.7386 23.6836 14.8782 25.4307C15.3702 24.3948 16.1806 23.718 17.097 23.7178C18.5974 23.7178 19.8147 25.5305 19.8147 27.7667L19.8001 28.1807C19.6609 30.2225 18.5037 31.8155 17.097 31.8155V30.3155C17.1942 30.3155 17.4619 30.2572 17.7727 29.794C18.0771 29.3404 18.3147 28.628 18.3147 27.7667C18.3147 26.9054 18.0771 26.1929 17.7727 25.7393C17.462 25.2763 17.1942 25.2178 17.097 25.2178C16.9843 25.2181 16.5908 25.3222 16.2337 26.0743L15.929 26.7139L15.887 27.5255C15.8828 27.6048 15.8802 27.6852 15.8802 27.7667C15.8802 28.628 16.1178 29.3404 16.4222 29.794C16.7325 30.2564 16.9994 30.3153 17.097 30.3155V31.8155C15.5967 31.8152 14.3802 30.0026 14.3802 27.7667C14.3802 27.659 14.3834 27.5519 14.389 27.4464C11.5781 25.4309 10.2404 22.9573 9.74249 20.7256L9.65362 20.2832C9.47292 19.2623 9.46444 18.3062 9.56183 17.4854L9.61065 17.1416C9.73247 16.388 9.95617 15.6946 10.2679 15.1992L10.4065 14.999C10.8974 14.3633 11.421 13.8846 12.0208 13.5557L12.2825 13.4238C12.9887 13.0989 13.7269 13 14.4983 13C15.2866 13 16.6936 13.2843 17.9983 13.6113C18.9997 13.8624 20.0365 14.1633 20.8303 14.4414C21.6717 13.6664 22.7734 13.6206 23.7571 13.7481C24.5281 13.848 25.4229 14.0846 26.3235 14.3232C26.6313 14.4048 26.9397 14.4869 27.2444 14.5635C28.3379 14.8383 29.477 15.0767 30.6496 15.1318L31.1545 15.1436C32.5052 15.1435 33.814 14.8775 35.0637 14.5635L35.9856 14.3232C36.886 14.0847 37.7801 13.848 38.551 13.7481C39.5015 13.6248 40.5622 13.6635 41.3918 14.3652C41.9619 14.1731 42.6332 13.9732 43.3176 13.7891L44.0021 13.6113C45.3068 13.2843 46.7139 13 47.5021 13L47.7892 13.0049C48.4572 13.0282 49.0998 13.1395 49.7179 13.4238C50.4291 13.7511 51.0331 14.2726 51.5939 14.999C51.9785 15.4973 52.2506 16.2804 52.3898 17.1416C52.534 18.034 52.5534 19.1163 52.3468 20.2832L52.258 20.7256C51.7601 22.9573 50.4224 25.4309 47.6115 27.4464C47.617 27.5519 47.6203 27.659 47.6203 27.7667L47.6056 28.1807C47.4665 30.2222 46.31 31.8152 44.9035 31.8155V30.3155C45.0011 30.3153 45.268 30.2564 45.5783 29.794C45.8827 29.3404 46.1203 28.628 46.1203 27.7667C46.1203 27.6852 46.1176 27.6048 46.1134 27.5255L46.0705 26.7139L45.7668 26.0743C45.4096 25.3222 45.0162 25.2181 44.9035 25.2178C44.8063 25.2178 44.5385 25.2763 44.2277 25.7393C43.9233 26.1929 43.6857 26.9054 43.6857 27.7667C43.6857 28.628 43.9233 29.3404 44.2277 29.794C44.5385 30.2572 44.8063 30.3155 44.9035 30.3155V31.8155L44.7629 31.8106C43.3275 31.7019 42.1857 29.9328 42.1857 27.7667C42.1858 25.5305 43.403 23.7178 44.9035 23.7178L45.0734 23.7256C45.9196 23.8037 46.6609 24.4593 47.1222 25.4307C49.1281 23.7928 50.0622 21.9198 50.422 20.2744L50.4865 19.9483C50.6547 18.9977 50.6352 18.1326 50.5246 17.4483C50.4234 16.8223 50.2583 16.4195 50.1466 16.2354L50.1027 16.1699C49.7326 15.6905 49.3977 15.4053 49.0724 15.2275L48.9338 15.1572C48.6064 15.0066 48.2263 14.9268 47.7248 14.9092L47.5021 14.9053C46.9795 14.9053 45.7898 15.1264 44.4592 15.46L43.9201 15.5996C43.3861 15.7416 42.8699 15.8905 42.4142 16.0342C42.6379 16.7747 42.7306 17.6731 42.7306 18.7158L42.716 19.4092Z" fill="white"/>
</svg>
