<svg width="62" height="62" viewBox="0 0 62 62" fill="none" xmlns="http://www.w3.org/2000/svg">
<path d="M31 12C26 12 22 16 22 21V25H18V42C18 45.3 20.7 48 24 48H38C41.3 48 44 45.3 44 42V25H40V21C40 16 36 12 31 12ZM25 21C25 17.7 27.7 15 31 15C34.3 15 37 17.7 37 21V25H25V21ZM41 42C41 43.7 39.7 45 38 45H24C22.3 45 21 43.7 21 42V28H41V42ZM26 30C24.9 30 24 30.9 24 32V38C24 39.1 24.9 40 26 40C27.1 40 28 39.1 28 38V32C28 30.9 27.1 30 26 30ZM31 30C29.9 30 29 30.9 29 32V38C29 39.1 29.9 40 31 40C32.1 40 33 39.1 33 38V32C33 30.9 32.1 30 31 30ZM36 30C34.9 30 34 30.9 34 32V38C34 39.1 34.9 40 36 40C37.1 40 38 39.1 38 38V32C38 30.9 37.1 30 36 30Z" fill="currentColor"/>
</svg>
