<svg width="62" height="62" viewBox="0 0 62 62" fill="none" xmlns="http://www.w3.org/2000/svg">
<path d="M21.5882 39.4706C21.5882 38.431 20.7455 37.5882 19.7059 37.5882C18.6663 37.5882 17.8235 38.431 17.8235 39.4706C17.8235 40.5102 18.6663 41.3529 19.7059 41.3529C20.7455 41.3529 21.5882 40.5102 21.5882 39.4706ZM23.4706 39.4706C23.4706 41.5498 21.7851 43.2353 19.7059 43.2353C17.6267 43.2353 15.9412 41.5498 15.9412 39.4706C15.9412 37.3914 17.6267 35.7059 19.7059 35.7059C21.7851 35.7059 23.4706 37.3914 23.4706 39.4706Z" fill="white"/>
<path d="M32.8824 39.4706C32.8824 38.431 32.0396 37.5882 31 37.5882C29.9604 37.5882 29.1176 38.431 29.1176 39.4706C29.1176 40.5102 29.9604 41.3529 31 41.3529C32.0396 41.3529 32.8824 40.5102 32.8824 39.4706ZM34.7647 39.4706C34.7647 41.5498 33.0792 43.2353 31 43.2353C28.9208 43.2353 27.2353 41.5498 27.2353 39.4706C27.2353 37.3914 28.9208 35.7059 31 35.7059C33.0792 35.7059 34.7647 37.3914 34.7647 39.4706Z" fill="white"/>
<path d="M44.1765 39.4706C44.1765 38.431 43.3337 37.5882 42.2941 37.5882C41.2545 37.5882 40.4118 38.431 40.4118 39.4706C40.4118 40.5102 41.2545 41.3529 42.2941 41.3529C43.3337 41.3529 44.1765 40.5102 44.1765 39.4706ZM46.0588 39.4706C46.0588 41.5498 44.3733 43.2353 42.2941 43.2353C40.2149 43.2353 38.5294 41.5498 38.5294 39.4706C38.5294 37.3914 40.2149 35.7059 42.2941 35.7059C44.3733 35.7059 46.0588 37.3914 46.0588 39.4706Z" fill="white"/>
<path fill-rule="evenodd" clip-rule="evenodd" d="M31 11C20.4937 11 11.8795 19.1011 11.0633 29.3976C11.0262 29.8652 11.0052 30.3373 11.0009 30.8134C11.0003 30.8755 11 30.9377 11 31C11 42.0457 19.9543 51 31 51C42.0457 51 51 42.0457 51 31L50.9999 30.9312C50.9983 30.4459 50.9793 29.9646 50.9437 29.488C50.1709 19.1486 41.537 11 31 11ZM22.671 47.8852C16.5072 44.839 12.2513 38.5171 12.1774 31.1937C12.5888 31.4108 12.94 31.691 13.3465 32.0193L13.3685 32.0371C13.7933 32.3802 14.2836 32.7763 14.9026 33.0763C15.5475 33.3888 16.3085 33.5882 17.2858 33.5882C18.2632 33.5882 19.0242 33.3888 19.6691 33.0763C20.2881 32.7763 20.7784 32.3802 21.2032 32.0371L21.2252 32.0193C21.6691 31.6607 22.0466 31.3593 22.5092 31.1351C22.9567 30.9183 23.5071 30.7647 24.2776 30.7647C25.0478 30.7647 25.5976 30.9183 26.045 31.1351C26.5078 31.3594 26.8858 31.6606 27.33 32.0193L27.3557 32.0401C27.7795 32.3825 28.2681 32.7772 28.8851 33.0763C29.5301 33.3888 30.2919 33.5882 31.2693 33.5882C32.2466 33.5882 33.0077 33.3888 33.6526 33.0763C34.2716 32.7763 34.7622 32.3799 35.187 32.0368L35.2086 32.0193C35.6526 31.6607 36.03 31.3593 36.4926 31.1351C36.9401 30.9183 37.4899 30.7648 38.2601 30.7647C39.0306 30.7647 39.581 30.9183 40.0285 31.1351C40.4911 31.3593 40.8686 31.6607 41.3125 32.0193L41.3343 32.0369C41.7591 32.3801 42.2496 32.7763 42.8686 33.0763C43.5135 33.3888 44.2745 33.5882 45.2518 33.5882C46.2291 33.5882 46.9902 33.3888 47.6351 33.0763C48.2541 32.7763 48.7444 32.3802 49.1692 32.0371L49.1912 32.0193C49.4095 31.843 49.6118 31.6806 49.8161 31.5343C49.616 38.7127 45.3971 44.8863 39.329 47.8852C39.4209 47.6068 39.4706 47.3092 39.4706 47C39.4706 45.4406 38.2065 44.1765 36.6471 44.1765C35.0877 44.1765 33.8235 45.4406 33.8235 47C33.8235 47.9948 34.338 48.8694 35.1153 49.3723C33.7908 49.6677 32.4136 49.8235 31 49.8235C29.5864 49.8235 28.2092 49.6677 26.8847 49.3723C27.662 48.8694 28.1765 47.9948 28.1765 47C28.1765 45.4406 26.9123 44.1765 25.3529 44.1765C23.7935 44.1765 22.5294 45.4406 22.5294 47C22.5294 47.3092 22.5791 47.6068 22.671 47.8852ZM12.7695 26.2941C12.4887 27.3849 12.3033 28.5139 12.2226 29.6718C12.3809 29.7298 12.5321 29.7945 12.6774 29.8649C13.2963 30.1648 13.7867 30.561 14.2114 30.9041L14.2335 30.9219C14.6774 31.2804 15.0549 31.5819 15.5175 31.8061C15.9649 32.0229 16.5154 32.1765 17.2858 32.1765C18.0561 32.1765 18.6059 32.0229 19.0533 31.8061C19.5161 31.5818 19.8941 31.2806 20.3382 30.9219L20.3603 30.9041C20.785 30.561 21.2754 30.1648 21.8943 29.8649C22.5392 29.5524 23.3003 29.3529 24.2776 29.3529C25.2549 29.353 26.0159 29.5524 26.6608 29.8649C27.2798 30.1649 27.7703 30.5611 28.1951 30.9042L28.2169 30.9219C28.6609 31.2804 29.0383 31.5819 29.5009 31.8061C29.9484 32.0229 30.4989 32.1765 31.2693 32.1765C32.0395 32.1764 32.5894 32.0229 33.0368 31.8061C33.4994 31.5819 33.8768 31.2804 34.3208 30.9219L34.3424 30.9044C34.7672 30.5613 35.2578 30.1649 35.8768 29.8649C36.5217 29.5524 37.2828 29.353 38.2601 29.3529C39.2376 29.3529 39.9993 29.5523 40.6443 29.8649C41.2613 30.1639 41.7499 30.5587 42.1737 30.9011L42.1994 30.9219C42.6436 31.2806 43.0216 31.5818 43.4844 31.8061C43.9318 32.0229 44.4816 32.1764 45.2518 32.1765C46.0223 32.1765 46.5727 32.0229 47.0202 31.8061C47.4828 31.5819 47.8603 31.2804 48.3042 30.9219L48.3262 30.9041C48.7352 30.5737 49.205 30.1942 49.7918 29.8987C49.7205 28.6613 49.5296 27.456 49.2305 26.2941H12.7695ZM13.0382 25.3529C15.4368 17.716 22.5715 12.1765 31 12.1765C39.4285 12.1765 46.5632 17.716 48.9618 25.3529H13.0382Z" fill="white"/>
</svg>
