<svg width="62" height="62" viewBox="0 0 62 62" fill="none" xmlns="http://www.w3.org/2000/svg">
<path d="M35.9086 14.9734C36.3226 14.9736 36.6586 15.3093 36.6586 15.7234V19.3367C36.6586 19.7508 36.3226 20.0865 35.9086 20.0867H35.64V23.6072C38.1149 24.6279 40.1894 26.4385 41.5345 28.7644C42.9675 31.242 43.4813 34.1457 42.9857 36.9646C42.4901 39.7834 41.0166 42.3373 38.8246 44.1775C36.6326 46.0177 33.8623 47.0261 31.0004 47.0261C28.1382 47.0261 25.3672 46.0178 23.1752 44.1775C20.9832 42.3373 19.5097 39.7834 19.014 36.9646C18.5184 34.1458 19.0323 31.242 20.4652 28.7644C21.8095 26.4401 23.8822 24.6302 26.3549 23.6091V20.0867H26.0804C25.6662 20.0867 25.3304 19.7509 25.3304 19.3367V15.7234C25.3304 15.3092 25.6662 14.9734 26.0804 14.9734H35.9086ZM38.3295 35.739C37.8354 35.739 37.3563 35.9089 36.972 36.2195H36.9711C36.3195 36.7451 35.5074 37.032 34.6703 37.032C33.8334 37.0319 33.0219 36.7449 32.3705 36.2195H32.3695C31.9851 35.9091 31.5062 35.739 31.0121 35.739C30.518 35.739 30.039 35.9091 29.6547 36.2195C29.0036 36.7451 28.1916 37.0319 27.3549 37.032C26.518 37.032 25.7062 36.7452 25.0551 36.2195C24.6707 35.9092 24.1916 35.74 23.6976 35.74C23.2653 35.74 22.8446 35.8698 22.4886 36.1101L22.3402 36.2195L20.6791 37.5584C21.2367 39.6892 22.4421 41.6037 24.14 43.0291C26.0618 44.6423 28.4912 45.5261 31.0004 45.5261C33.5096 45.5261 35.9389 44.6425 37.8607 43.0291C39.5627 41.6002 40.7687 39.6798 41.3246 37.5427L39.6869 36.2195C39.3026 35.9089 38.8235 35.7391 38.3295 35.739ZM27.8549 24.1218C27.8549 24.4374 27.6573 24.7193 27.3607 24.8269C25.0019 25.6828 23.0203 27.3432 21.764 29.5154C20.6484 31.4443 20.1696 33.6675 20.3802 35.8718L21.3978 35.0525C22.049 34.5268 22.8608 34.24 23.6976 34.24C24.5345 34.24 25.3463 34.5268 25.9974 35.0525C26.3817 35.3627 26.861 35.532 27.3549 35.532C27.8487 35.5319 28.328 35.3627 28.7123 35.0525C29.3635 34.5266 30.175 34.239 31.0121 34.239C31.8492 34.239 32.6616 34.5265 33.3129 35.0525C33.6974 35.3625 34.1763 35.5319 34.6703 35.532C35.1644 35.532 35.644 35.3626 36.0287 35.0525C36.6799 34.5262 37.4922 34.239 38.3295 34.239C39.1666 34.2391 39.9782 34.5264 40.6293 35.0525H40.6302L41.6215 35.8533C41.8277 33.655 41.3482 31.4389 40.2357 29.5154C38.9794 27.3432 36.9979 25.6828 34.639 24.8269V24.8259C34.3487 24.7225 34.14 24.4477 34.14 24.1218V20.0867H27.8549V24.1218ZM26.8304 18.5867H35.1586V16.4734H26.8304V18.5867Z" fill="white"/>
</svg>
