<svg width="62" height="62" viewBox="0 0 62 62" fill="none" xmlns="http://www.w3.org/2000/svg">
<path d="M35.9084 14.9734C36.3225 14.9736 36.6584 15.3093 36.6584 15.7234V19.3367C36.6584 19.7508 36.3225 20.0865 35.9084 20.0867H35.6399V23.6072C38.1148 24.6279 40.1892 26.4385 41.5344 28.7644C42.9673 31.242 43.4812 34.1457 42.9856 36.9646C42.4899 39.7834 41.0165 42.3373 38.8245 44.1775C36.6325 46.0177 33.8622 47.026 31.0002 47.0261C28.1381 47.0261 25.3671 46.0178 23.175 44.1775C20.9831 42.3373 19.5096 39.7834 19.0139 36.9646C18.5183 34.1457 19.0322 31.242 20.4651 28.7644C21.8093 26.4401 23.8821 24.6302 26.3547 23.6091V20.0867H26.0803C25.6661 20.0867 25.3303 19.7509 25.3303 19.3367V15.7234C25.3303 15.3092 25.6661 14.9734 26.0803 14.9734H35.9084ZM38.3293 35.739C37.8353 35.739 37.3562 35.9089 36.9719 36.2195H36.9709C36.3194 36.745 35.5072 37.032 34.6702 37.032C33.8333 37.0319 33.0218 36.7449 32.3704 36.2195H32.3694C31.985 35.9091 31.506 35.739 31.012 35.739C30.5179 35.739 30.0389 35.909 29.6545 36.2195C29.0035 36.7451 28.1915 37.0319 27.3547 37.032C26.5179 37.032 25.7061 36.7451 25.0549 36.2195C24.6706 35.9092 24.1915 35.74 23.6975 35.74C23.2652 35.74 22.8445 35.8698 22.4885 36.1101L22.3401 36.2195L20.679 37.5583C21.2366 39.6892 22.442 41.6036 24.1399 43.0291C26.0617 44.6423 28.491 45.5261 31.0002 45.5261C33.5095 45.526 35.9388 44.6424 37.8606 43.0291C39.5626 41.6002 40.7686 39.6798 41.3245 37.5427L39.6868 36.2195C39.3025 35.9089 38.8234 35.7391 38.3293 35.739ZM27.8547 24.1218C27.8547 24.4374 27.6572 24.7193 27.3606 24.8269C25.0017 25.6828 23.0202 27.3432 21.7639 29.5154C20.6483 31.4443 20.1694 33.6674 20.3801 35.8718L21.3977 35.0525C22.0488 34.5268 22.8606 34.24 23.6975 34.24C24.5344 34.24 25.3462 34.5268 25.9973 35.0525C26.3816 35.3627 26.8609 35.532 27.3547 35.532C27.8486 35.5319 28.3279 35.3627 28.7122 35.0525C29.3634 34.5266 30.1749 34.239 31.012 34.239C31.8491 34.239 32.6615 34.5265 33.3127 35.0525C33.6973 35.3624 34.1762 35.5319 34.6702 35.532C35.1643 35.532 35.6439 35.3626 36.0286 35.0525C36.6798 34.5262 37.4921 34.239 38.3293 34.239C39.1665 34.2391 39.9781 34.5264 40.6292 35.0525H40.6301L41.6213 35.8533C41.8276 33.655 41.3481 31.4389 40.2356 29.5154C38.9793 27.3432 36.9977 25.6828 34.6389 24.8269V24.8259C34.3485 24.7225 34.1399 24.4477 34.1399 24.1218V20.0867H27.8547V24.1218ZM26.8303 18.5867H35.1584V16.4734H26.8303V18.5867Z" fill="white"/>
</svg>
