<svg width="62" height="62" viewBox="0 0 62 62" fill="none" xmlns="http://www.w3.org/2000/svg">
<path d="M31 16C21 16 13 24 11 31C13 38 21 46 31 46C41 46 49 38 51 31C49 24 41 16 31 16ZM31 43C22.6 43 16 37.6 14 31C16 24.4 22.6 19 31 19C39.4 19 46 24.4 48 31C46 37.6 39.4 43 31 43ZM31 22C26 22 22 26 22 31C22 36 26 40 31 40C36 40 40 36 40 31C40 26 36 22 31 22ZM31 37C27.7 37 25 34.3 25 31C25 27.7 27.7 25 31 25C34.3 25 37 27.7 37 31C37 34.3 34.3 37 31 37ZM31 28C29.3 28 28 29.3 28 31C28 32.7 29.3 34 31 34C32.7 34 34 32.7 34 31C34 29.3 32.7 28 31 28Z" fill="currentColor"/>
</svg>
