<svg width="62" height="62" viewBox="0 0 62 62" fill="none" xmlns="http://www.w3.org/2000/svg">
<path d="M31 20.1251C37.0172 20.1251 42.4181 22.7529 46.2754 25.3285C48.2112 26.621 49.7768 27.9132 50.8594 28.8826C51.4009 29.3675 51.8227 29.7725 52.1104 30.0579C52.2543 30.2007 52.3652 30.314 52.4404 30.3921C52.4778 30.4308 52.5066 30.4608 52.5264 30.4817C52.5363 30.4922 52.5444 30.5005 52.5498 30.5063C52.5523 30.509 52.5542 30.5113 52.5557 30.5129C52.5564 30.5137 52.5571 30.5152 52.5576 30.5157H52.5586C52.5588 30.516 52.5563 30.5185 52 31C52.5563 31.4815 52.5588 31.484 52.5586 31.4843H52.5576C52.5571 31.4848 52.5564 31.4863 52.5557 31.4871C52.5542 31.4887 52.5523 31.491 52.5498 31.4937C52.5444 31.4995 52.5363 31.5078 52.5264 31.5183C52.5066 31.5392 52.4778 31.5692 52.4404 31.6079C52.3652 31.686 52.2543 31.7994 52.1104 31.9421C51.8227 32.2276 51.4009 32.6325 50.8594 33.1174C49.7768 34.0868 48.2112 35.379 46.2754 36.6716C42.4181 39.2471 37.0172 41.8749 31 41.8749C24.9828 41.8749 19.5819 39.2471 15.7246 36.6716C13.7889 35.379 12.2232 34.0868 11.1406 33.1174C10.5991 32.6325 10.1774 32.2276 9.88966 31.9421C9.74576 31.7994 9.63485 31.686 9.55958 31.6079C9.52222 31.5692 9.49341 31.5392 9.47364 31.5183C9.46372 31.5078 9.45559 31.4995 9.4502 31.4937C9.44769 31.491 9.44585 31.4887 9.44434 31.4871C9.44357 31.4863 9.44288 31.4848 9.44239 31.4843H9.44142C9.44121 31.484 9.44372 31.4815 10 31C9.44372 30.5185 9.44121 30.516 9.44142 30.5157H9.44239C9.44288 30.5152 9.44357 30.5137 9.44434 30.5129C9.44585 30.5113 9.44769 30.509 9.4502 30.5063C9.45559 30.5005 9.46372 30.4922 9.47364 30.4817C9.49341 30.4608 9.52222 30.4308 9.55958 30.3921C9.63485 30.314 9.74576 30.2007 9.88966 30.0579C10.1774 29.7725 10.5991 29.3675 11.1406 28.8826C12.2232 27.9132 13.7889 26.621 15.7246 25.3285C19.5819 22.7529 24.9828 20.1251 31 20.1251ZM19.75 31C19.75 27.8411 21.1442 24.9977 23.3691 23.0109C20.8221 23.9448 18.5175 25.2261 16.5772 26.5217C14.7129 27.7665 13.2029 29.0119 12.1602 29.9456C11.683 30.3728 11.3052 30.7351 11.0361 31C11.3052 31.2649 11.683 31.6272 12.1602 32.0545C13.2029 32.9881 14.7129 34.2335 16.5772 35.4783C18.5174 36.7738 20.8222 38.0542 23.3691 38.9881C21.1445 37.0013 19.75 34.1587 19.75 31ZM29.3887 26.4754C30.503 26.1046 31.718 26.1306 32.8145 26.5481C33.9108 26.9656 34.8168 27.7476 35.3701 28.7533C35.9234 29.7592 36.0881 30.9233 35.833 32.0356C35.5779 33.1479 34.9198 34.1357 33.9785 34.8213C33.0374 35.5068 31.8744 35.8451 30.6983 35.7757C29.5218 35.7062 28.4094 35.2333 27.5615 34.4418C26.7138 33.6505 26.1863 32.5928 26.0733 31.4588C25.9603 30.3248 26.2694 29.189 26.9453 28.2558C27.1828 27.9279 27.65 27.848 27.9893 28.0774C28.3286 28.307 28.4114 28.7595 28.1738 29.0875C27.7028 29.7379 27.4867 30.5297 27.5654 31.32C27.6442 32.1103 28.0128 32.8472 28.6035 33.3987C29.1944 33.9502 29.9693 34.28 30.7891 34.3286C31.609 34.377 32.4201 34.1409 33.0762 33.663C33.7321 33.1852 34.1903 32.4972 34.3682 31.7222C34.546 30.9469 34.4316 30.135 34.0459 29.4339C33.6603 28.7331 33.0287 28.1881 32.2647 27.8971C31.5004 27.6061 30.6537 27.5885 29.877 27.847C29.4855 27.9773 29.0589 27.776 28.9238 27.3977C28.789 27.0191 28.997 26.6058 29.3887 26.4754ZM10 31L9.44142 31.4833C9.18652 31.2081 9.18652 30.7919 9.44142 30.5167L10 31ZM52.5586 30.5167C52.8135 30.7919 52.8135 31.2081 52.5586 31.4833L52 31L52.5586 30.5167ZM21.25 31C21.25 36.2052 25.6152 40.4249 31 40.4249C36.3848 40.4249 40.75 36.2052 40.75 31C40.75 25.7948 36.3848 21.5751 31 21.5751C25.6152 21.5751 21.25 25.7948 21.25 31ZM42.25 31C42.25 34.1589 40.8549 37.0013 38.6299 38.9881C41.1772 38.0542 43.4824 36.774 45.4229 35.4783C47.2872 34.2335 48.7971 32.9881 49.8399 32.0545C50.317 31.6272 50.6948 31.2649 50.9639 31C50.6948 30.7351 50.317 30.3728 49.8399 29.9456C48.7971 29.0119 47.2872 27.7665 45.4229 26.5217C43.4823 25.226 41.1773 23.9449 38.6299 23.0109C40.8552 24.9978 42.25 27.8409 42.25 31Z" fill="white"/>
</svg>
