<svg width="62" height="62" viewBox="0 0 62 62" fill="none" xmlns="http://www.w3.org/2000/svg">
<path d="M24 15C21.2 15 19 17.2 19 20V27C19 29.8 21.2 32 24 32H27V48C27 49.1 27.9 50 29 50H32C33.1 50 34 49.1 34 48V32H37C39.8 32 42 29.8 42 27V20C42 17.2 39.8 15 37 15H24ZM24 18H37C38.1 18 39 18.9 39 20V27C39 28.1 38.1 29 37 29H24C22.9 29 22 28.1 22 27V20C22 18.9 22.9 18 24 18ZM26 20C24.9 20 24 20.9 24 22V25C24 26.1 24.9 27 26 27C27.1 27 28 26.1 28 25V22C28 20.9 27.1 20 26 20ZM30 20C28.9 20 28 20.9 28 22V25C28 26.1 28.9 27 30 27C31.1 27 32 26.1 32 25V22C32 20.9 31.1 20 30 20ZM34 20C32.9 20 32 20.9 32 22V25C32 26.1 32.9 27 34 27C35.1 27 36 26.1 36 25V22C36 20.9 35.1 20 34 20Z" fill="currentColor"/>
</svg>
