<svg width="62" height="62" viewBox="0 0 62 62" fill="none" xmlns="http://www.w3.org/2000/svg">
<path d="M20.3029 45.8522C20.4663 46.8576 21.0609 47.7783 22.0078 48.325L21.2578 49.624L21.0101 49.4709C19.8008 48.677 19.0399 47.4346 18.8218 46.0932C17.4663 46.6072 15.8994 46.5304 14.5461 45.749L15.2961 44.45C16.243 44.9967 17.3376 45.0513 18.29 44.6901L20.0079 44.0389L20.3029 45.8522ZM26.7889 47.0439C27.6077 45.6256 27.3218 43.8684 26.1935 42.7783L25.4424 42.0537L29.1764 33.5297L28.4259 32.1773L25.2171 33.4303L24.7092 31.5346L19.1956 38.4595L18.1914 38.1109C16.6373 37.5701 14.8677 38.1919 14.015 39.6689C13.0486 41.3429 13.6221 43.4835 15.2961 44.45L14.5461 45.749L14.3271 45.6147C12.1774 44.2242 11.4271 41.4238 12.5934 39.1448L12.7159 38.9189C13.9354 36.8068 16.4633 35.921 18.6847 36.6941L24.7713 29.0502L24.8181 28.9983C24.9359 28.8867 25.1024 28.8387 25.2641 28.8724C25.4488 28.9109 25.5962 29.0499 25.645 29.2321L26.2323 31.4239L28.6942 30.4626L28.7832 30.4373C28.9914 30.3977 29.2067 30.4945 29.313 30.6857L30.728 33.2347L30.7724 33.3415C30.8035 33.4517 30.7964 33.5708 30.7496 33.6779L27.2348 41.6993C28.8469 43.2564 29.2592 45.7651 28.0879 47.7939L27.9536 48.0129C26.5167 50.2341 23.5746 50.9617 21.2578 49.624L22.0078 48.325C23.6818 49.2915 25.8223 48.7178 26.7889 47.0439Z" fill="white"/>
<path d="M36.0772 15.4561C37.4579 13.0647 40.5158 12.2453 42.9073 13.626C45.0054 14.8374 45.8937 17.3399 45.1475 19.5506C45.6665 19.655 46.1776 19.8442 46.6614 20.1236C49.0529 21.5043 49.8723 24.5622 48.4916 26.9537C47.1109 29.3452 44.0529 30.1645 41.6614 28.7838L42.4114 27.4848C44.0855 28.4513 46.226 27.8777 47.1925 26.2037C48.159 24.5297 47.5855 22.3891 45.9114 21.4226C45.5704 21.2257 45.2123 21.0939 44.8509 21.0212L43.181 20.6851L43.7263 19.0706C44.2483 17.5238 43.6244 15.7721 42.1573 14.925C40.4833 13.9585 38.3427 14.5321 37.3762 16.2061C36.8091 17.1884 36.7711 18.3303 37.1783 19.3067L37.622 20.3703L29.8317 26.3731L29.6088 27.1499L32.2305 28.1324L32.2636 30.1238L40.7161 25.8001L41.4857 26.7113C41.7388 27.0112 42.0478 27.2748 42.4114 27.4848L41.6614 28.7838C41.1451 28.4857 40.7021 28.1093 40.3387 27.6784L31.5192 32.1906C31.3655 32.2692 31.1816 32.263 31.0336 32.1741C30.8858 32.0853 30.7945 31.9261 30.7916 31.7536L30.7479 29.1788L28.2186 28.2316C27.9746 28.1401 27.8416 27.8762 27.9133 27.6257L28.4803 25.6436C28.5097 25.541 28.5718 25.4507 28.6563 25.3855L35.7939 19.8843C35.2143 18.4948 35.2663 16.8605 36.0772 15.4561Z" fill="white"/>
<path d="M25.6497 19.6849C26.0631 19.6583 26.4198 19.9717 26.4464 20.3851L26.6785 23.9832C26.7051 24.3965 26.3917 24.7532 25.9783 24.7799C25.565 24.8065 25.2083 24.493 25.1816 24.0797L24.9496 20.4816C24.9229 20.0683 25.2364 19.7116 25.6497 19.6849Z" fill="white"/>
<path d="M25.122 24.4309C25.4807 24.638 25.6037 25.0967 25.3965 25.4555C25.1894 25.8142 24.7307 25.9371 24.372 25.73L20.9079 23.73C20.5492 23.5229 20.4263 23.0642 20.6334 22.7055C20.8405 22.3467 21.2992 22.2238 21.6579 22.4309L25.122 24.4309Z" fill="white"/>
<path d="M24.0976 25.9572C24.4689 25.7736 24.9187 25.9258 25.1023 26.2971C25.2859 26.6684 25.1338 27.1182 24.7624 27.3018L21.5304 28.8999C21.1591 29.0835 20.7093 28.9313 20.5257 28.56C20.3421 28.1887 20.4943 27.7389 20.8656 27.5553L24.0976 25.9572Z" fill="white"/>
</svg>
