<svg width="62" height="62" viewBox="0 0 62 62" fill="none" xmlns="http://www.w3.org/2000/svg">
<path d="M32.0941 17.6509V24.321C32.0941 25.4542 32.7683 26.5164 33.8944 27.1618L34.3211 27.4058M29.9014 17.6509V24.321C29.9014 25.4542 29.2272 26.5164 28.1011 27.1618L27.6744 27.4058M27.642 30.0468C27.642 30.0468 29.7564 29.432 30.9977 28.3176C32.2381 29.432 34.3526 30.0468 34.3526 30.0468M34.6992 36.8663C34.7198 37.9083 34.9729 38.9325 35.4402 39.8641C35.9074 40.7958 36.5768 41.6112 37.3996 42.2509C38.2647 42.9251 39.3997 43.5111 40.8814 43.8208C46.1481 44.937 48.8081 44.6912 48.8027 39.0158C48.8027 35.1119 48.016 21.0426 38.8948 19.8211C35.1024 19.3125 34.3796 22.3865 34.4183 24.1328L34.6992 36.8663ZM27.2963 36.8663C27.276 37.9078 27.0234 38.9318 26.557 39.8633C26.0906 40.7949 25.4222 41.6106 24.6004 42.2509C23.7345 42.9251 22.6003 43.5111 21.1186 43.8208C15.851 44.937 13.191 44.6912 13.1973 39.0158C13.1973 35.1119 13.9841 21.0426 23.1052 19.8211C26.8976 19.3125 27.6204 22.3865 27.5817 24.1328L27.2963 36.8663Z" stroke="white" stroke-width="1.5" stroke-linecap="round" stroke-linejoin="round"/>
</svg>
