<svg width="62" height="62" viewBox="0 0 62 62" fill="none" xmlns="http://www.w3.org/2000/svg">
<path d="M32.0941 17.6509V24.321C32.0941 25.4543 32.7683 26.5164 33.8944 27.1618L34.321 27.4058M29.9013 17.6509V24.321C29.9013 25.4543 29.2271 26.5164 28.101 27.1618L27.6743 27.4058M27.6419 30.0468C27.6419 30.0468 29.7564 29.432 30.9977 28.3176C32.2381 29.432 34.3525 30.0468 34.3525 30.0468M34.6991 36.8663C34.7197 37.9083 34.9729 38.9325 35.4401 39.8641C35.9073 40.7958 36.5768 41.6112 37.3996 42.2509C38.2646 42.9252 39.3997 43.5112 40.8813 43.8208C46.1481 44.937 48.808 44.6913 48.8026 39.0158C48.8026 35.1119 48.0159 21.0426 38.8947 19.8211C35.1024 19.3125 34.3796 22.3865 34.4183 24.1328L34.6991 36.8663ZM27.2963 36.8663C27.276 37.9079 27.0234 38.9318 26.557 39.8633C26.0906 40.7949 25.4221 41.6106 24.6003 42.2509C23.7344 42.9252 22.6002 43.5112 21.1186 43.8208C15.8509 44.937 13.191 44.6913 13.1973 39.0158C13.1973 35.1119 13.984 21.0426 23.1052 19.8211C26.8975 19.3125 27.6203 22.3865 27.5816 24.1328L27.2963 36.8663Z" stroke="white" stroke-width="1.5" stroke-linecap="round" stroke-linejoin="round"/>
</svg>
