<svg width="62" height="62" viewBox="0 0 62 62" fill="none" xmlns="http://www.w3.org/2000/svg">
<path d="M28.2252 17.8394C28.2251 17.1072 27.9343 16.4049 27.4166 15.8872C26.8988 15.3695 26.1966 15.0786 25.4644 15.0786C24.465 15.0795 23.4948 15.4164 22.7095 16.0347C21.9297 16.6487 21.3773 17.5051 21.1392 18.4683L21.0953 18.728C21.1863 18.7358 21.2773 18.7464 21.3677 18.7593C22.7882 18.9611 24.0236 19.776 24.9576 21.0542C25.2019 21.3886 25.1288 21.8577 24.7945 22.1021C24.4601 22.3464 23.991 22.2734 23.7466 21.939C23.0091 20.9297 22.1107 20.3802 21.1568 20.2446C20.2041 20.1093 19.0912 20.3721 17.9 21.1899C17.3561 21.6353 16.8935 22.2878 16.7037 23.0786C16.5477 23.7286 16.5682 24.5073 16.9224 25.3911C17.2927 25.2921 17.7926 25.2025 18.3648 25.2241C19.6383 25.2723 21.1674 25.8638 22.3502 27.7915C22.5667 28.1445 22.4561 28.6062 22.1031 28.8228C21.75 29.0394 21.2885 28.9287 21.0718 28.5757C20.1616 27.0921 19.1005 26.7531 18.3082 26.7231C17.8904 26.7074 17.5205 26.7778 17.2535 26.854C17.1211 26.8918 17.0171 26.9304 16.9498 26.9575C16.9379 26.9623 16.927 26.9662 16.9175 26.9702C15.5442 27.9366 14.8887 29.1962 14.8492 30.4146C14.8143 31.4937 15.2598 32.6326 16.2769 33.604C16.4186 33.4596 16.5909 33.3089 16.7994 33.1694C17.594 32.6381 18.7981 32.3219 20.5084 32.7739C20.9088 32.8798 21.1474 33.2905 21.0416 33.6909C20.9355 34.0911 20.5249 34.3299 20.1246 34.2241C18.7846 33.8701 18.0325 34.1497 17.6334 34.4165C17.4207 34.5587 17.2773 34.7175 17.19 34.8364C17.1513 34.8891 17.1247 34.9332 17.108 34.9624L16.8658 35.894C16.4577 37.4718 17.136 39.216 18.3853 40.4966C18.4534 40.3959 18.5304 40.2917 18.6177 40.186C19.1089 39.5916 19.8938 38.9799 21.1168 38.6108C21.085 38.0552 21.2142 37.4552 21.5494 36.8237C21.7436 36.458 22.1972 36.3182 22.5631 36.5122C22.9289 36.7064 23.0678 37.161 22.8736 37.5269C22.6109 38.0217 22.5825 38.395 22.6295 38.6704C22.6783 38.9565 22.8217 39.2108 23.0152 39.4331C23.2097 39.6566 23.4357 39.8257 23.605 39.936C23.6879 39.99 23.7528 40.0275 23.7974 40.0532C23.8072 40.0589 23.8238 40.0677 23.8384 40.0767C23.8454 40.0809 23.8592 40.0901 23.8756 40.1011C23.8838 40.1066 23.8982 40.1159 23.9146 40.1284C23.9269 40.1378 23.9617 40.1653 24.0006 40.2056C24.0198 40.2255 24.0569 40.265 24.0933 40.3218C24.1228 40.3677 24.1983 40.4944 24.2105 40.6772C24.226 40.9113 24.13 41.1481 23.9381 41.3062C23.7885 41.4293 23.6353 41.4592 23.5777 41.4683C23.4571 41.4871 23.3599 41.4713 23.3463 41.4692C23.3135 41.4642 23.2875 41.4577 23.275 41.4546C23.2335 41.4442 23.1961 41.4303 23.19 41.4282C23.1095 41.4003 23.0387 41.3578 22.9752 41.3081C22.9258 41.279 22.8605 41.2409 22.7867 41.1929C22.5502 41.0388 22.201 40.7825 21.8834 40.4175C21.7833 40.3025 21.6861 40.1736 21.5943 40.0327C20.6224 40.3167 20.0783 40.773 19.774 41.1411C19.5925 41.3608 19.4857 41.5619 19.4263 41.6997C19.4067 41.7454 19.3935 41.7843 19.3834 41.814C19.4048 43.4103 19.9653 44.6636 20.8541 45.5229C21.7638 46.4025 23.0709 46.9214 24.6431 46.9214C25.5025 46.9214 26.4091 46.5263 27.107 45.8735C27.8048 45.2208 28.2251 44.3771 28.2252 43.5493V32.6724C28.0503 32.6233 27.8314 32.5776 27.5845 32.561C26.9664 32.5198 26.1624 32.6542 25.3882 33.4136C25.0926 33.7036 24.6178 33.6985 24.3277 33.4028C24.0378 33.1071 24.0418 32.6323 24.3375 32.3423C25.4728 31.2285 26.7246 30.9999 27.6841 31.064C27.878 31.0769 28.0591 31.1041 28.2252 31.1353V17.8394ZM36.7867 13.5845C38.0337 13.6377 39.2353 14.0812 40.2193 14.856C41.2032 15.6307 41.9159 16.6944 42.2603 17.894L42.3248 18.1353L42.3257 18.1392L42.4791 18.7896C43.2849 18.955 44.0658 19.3231 44.7798 19.8257L45.0045 19.9897L45.0132 19.9956C46.0298 20.7881 46.575 22.0574 46.7437 23.272C46.877 24.2319 46.788 25.2614 46.4254 26.1157C47.0132 26.6225 47.5071 27.2317 47.8785 27.9175C48.357 28.8012 48.6215 29.785 48.65 30.7896C48.6784 31.7941 48.4702 32.7914 48.0425 33.7007C47.6619 34.5098 47.1154 35.2284 46.442 35.813L46.5845 36.3589L46.69 36.8159C47.1405 39.0532 46.6969 41.6204 44.4048 43.0669C43.9008 44.4719 43.2418 45.7544 42.1119 46.688C40.8968 47.6917 39.2436 48.2114 36.9371 48.2114C36.3249 48.2115 35.7184 48.0911 35.1529 47.8569C34.5873 47.6227 34.0731 47.2791 33.6402 46.8462C33.2073 46.4133 32.8637 45.8992 32.6295 45.3335C32.3953 44.7679 32.2748 44.1615 32.275 43.5493V17.8394C32.275 16.7095 32.7241 15.6257 33.523 14.8267C34.3221 14.0276 35.4066 13.5786 36.5367 13.5786L36.7867 13.5845ZM29.7252 43.5493C29.7251 44.8824 29.0596 46.1 28.1314 46.9683C27.2032 47.8365 25.9436 48.4214 24.6431 48.4214C22.7362 48.4214 21.0374 47.7867 19.8111 46.6011C18.6562 45.4844 17.9676 43.9254 17.8882 42.0806C16.0519 40.5301 14.7674 38.0129 15.4136 35.5171V35.5161L15.5552 34.9712C14.0603 33.6967 13.296 32.0468 13.3502 30.3667C13.4015 28.7776 14.1821 27.259 15.5914 26.0972C15.0723 24.8875 15.0028 23.7414 15.2457 22.729C15.524 21.569 16.1998 20.6353 16.9781 20.0073L17.022 19.9741C17.8559 19.3968 18.7102 19.0129 19.5572 18.8315L19.6656 18.188L19.6763 18.1353C19.9908 16.8371 20.7323 15.6823 21.7818 14.856C22.8313 14.0297 24.1277 13.5797 25.4634 13.5786H25.4644C26.5944 13.5786 27.6781 14.0276 28.4771 14.8267C29.2761 15.6257 29.7251 16.7093 29.7252 17.8394V43.5493ZM33.775 34.8179C34.5605 34.9076 35.3193 35.173 35.9937 35.5981C36.3441 35.8191 36.449 36.2829 36.2281 36.6333C36.007 36.9832 35.5441 37.0885 35.1939 36.8677C34.7599 36.594 34.2767 36.4151 33.775 36.3345V43.5493L33.7789 43.7046C33.7966 44.0668 33.8772 44.4235 34.0162 44.7593C34.175 45.1429 34.4071 45.492 34.7007 45.7856C34.9944 46.0793 35.3435 46.3123 35.7271 46.4712C36.1107 46.63 36.522 46.7115 36.9371 46.7114C39.0191 46.7114 40.292 46.2452 41.1558 45.5317C41.9861 44.8459 42.5295 43.8556 42.9976 42.5483C42.9968 42.5465 42.9965 42.5444 42.9957 42.5425C42.9363 42.4048 42.8303 42.2035 42.649 41.9839C42.3451 41.616 41.8009 41.1606 40.8306 40.8765C40.739 41.0169 40.6423 41.1457 40.5425 41.2603C40.225 41.6251 39.8766 41.8816 39.6402 42.0356C39.5643 42.0851 39.4967 42.1235 39.4468 42.1528C39.3843 42.2011 39.3156 42.2436 39.2369 42.271C39.2309 42.2731 39.1926 42.2869 39.1509 42.2974C39.1383 42.3005 39.1122 42.3061 39.0797 42.311C39.0648 42.3133 38.9689 42.3298 38.8492 42.311C38.7918 42.3021 38.6378 42.2724 38.4879 42.1489C38.2961 41.9909 38.2009 41.754 38.2164 41.52C38.2285 41.3371 38.3041 41.2105 38.3336 41.1646C38.3699 41.1079 38.4061 41.0683 38.4254 41.0483C38.4641 41.0082 38.4988 40.9807 38.5113 40.9712C38.5277 40.9587 38.5421 40.9494 38.5504 40.9438C38.5668 40.9328 38.5814 40.9237 38.5884 40.9194C38.6029 40.9107 38.6187 40.9016 38.6285 40.896C38.673 40.8703 38.7381 40.8327 38.8209 40.7788C38.9902 40.6685 39.217 40.4995 39.4117 40.2759C39.6052 40.0535 39.7486 39.7993 39.7974 39.5132C39.8444 39.2377 39.8151 38.8646 39.5523 38.3696C39.3581 38.0038 39.498 37.5492 39.8638 37.355C40.2296 37.1611 40.6834 37.3008 40.8775 37.6665C41.2129 38.2984 41.3402 38.8987 41.3082 39.4546C42.5296 39.8237 43.3145 40.4347 43.8052 41.0288C43.9181 41.1655 44.012 41.3008 44.0933 41.4282C45.3535 40.3062 45.5984 38.5221 45.1334 36.7368L45.1324 36.7358L44.9341 35.9731C44.014 35.3085 42.884 34.9925 41.7476 35.0884C41.335 35.1232 40.9721 34.8174 40.9371 34.4048C40.9022 33.9921 41.208 33.6292 41.6207 33.5942C43.0141 33.4765 44.4001 33.8299 45.5621 34.5864C46.0302 34.1562 46.4134 33.6405 46.6851 33.063C47.0128 32.3663 47.1717 31.6021 47.15 30.8325C47.1282 30.0629 46.9258 29.3084 46.5591 28.6313C46.217 27.9997 45.7397 27.4529 45.1636 27.0259C45.1605 27.0254 45.1571 27.0254 45.1539 27.0249C45.0372 27.0065 44.8646 26.982 44.649 26.9595C44.2161 26.9142 43.6166 26.877 42.9507 26.9087C41.7457 26.9661 40.4357 27.2432 39.4605 27.9878C39.4959 28.0842 39.526 28.1797 39.5494 28.2739C39.6588 28.7147 39.6513 29.1296 39.6216 29.4224C39.6065 29.5715 39.5845 29.6966 39.566 29.7866C39.5567 29.8316 39.5484 29.8685 39.5416 29.896C39.5382 29.9097 39.5352 29.9213 39.5328 29.9302C39.5316 29.9346 39.5307 29.9387 39.5298 29.9419C39.5294 29.9435 39.5283 29.9455 39.5279 29.9468V29.9487C39.5278 29.9491 39.5273 29.9501 38.8062 29.7446L39.5279 29.9497C39.4144 30.3481 38.9985 30.5788 38.6002 30.4653C38.2037 30.3521 37.9732 29.9402 38.0836 29.5435C38.0838 29.5426 38.0844 29.5399 38.0855 29.5356C38.0879 29.5262 38.0923 29.5089 38.0972 29.4849C38.1072 29.4363 38.1203 29.3617 38.1295 29.271C38.1483 29.0842 38.1478 28.8545 38.0933 28.6353C38.0407 28.4234 37.9422 28.2353 37.7672 28.0864C37.5913 27.9369 37.2785 27.776 36.7095 27.7241C36.2972 27.6865 35.9934 27.322 36.0308 26.9097C36.0684 26.4973 36.433 26.1927 36.8453 26.23C37.5437 26.2937 38.1092 26.4896 38.5484 26.7974C39.8807 25.7783 41.5608 25.4735 42.8795 25.4106C43.6396 25.3744 44.3177 25.4163 44.8052 25.4673C44.8959 25.4768 44.9798 25.4898 45.0572 25.4995C45.2768 24.9622 45.364 24.2386 45.2584 23.478C45.1247 22.5156 44.7068 21.6597 44.0904 21.1792V21.1782C43.1058 20.435 42.1028 20.1049 41.2242 20.2114C40.3749 20.3145 39.4863 20.8449 38.7359 22.1597C38.5305 22.5193 38.0722 22.6443 37.7125 22.439C37.353 22.2335 37.2279 21.7751 37.4332 21.4155C38.3374 19.8315 39.5529 18.9463 40.9254 18.7397L40.8668 18.4888L40.8189 18.3071C40.5612 17.4098 40.0275 16.6143 39.2916 16.0347C38.5062 15.4163 37.5353 15.0794 36.5357 15.0786C35.8038 15.0788 35.1021 15.3698 34.5845 15.8872C34.0668 16.4049 33.775 17.1072 33.775 17.8394V34.8179Z" fill="white"/>
</svg>
