<svg width="62" height="62" viewBox="0 0 62 62" fill="none" xmlns="http://www.w3.org/2000/svg">
<path d="M28.2254 17.8394C28.2253 17.1072 27.9345 16.4049 27.4168 15.8872C26.899 15.3695 26.1968 15.0786 25.4646 15.0786C24.4652 15.0795 23.495 15.4164 22.7097 16.0347C21.9299 16.6487 21.3775 17.5051 21.1394 18.4683L21.0955 18.728C21.1865 18.7358 21.2775 18.7464 21.3679 18.7593C22.7884 18.9611 24.0238 19.776 24.9578 21.0542C25.2021 21.3886 25.129 21.8577 24.7947 22.1021C24.4602 22.3464 23.9912 22.2734 23.7468 21.939C23.0093 20.9297 22.1109 20.3802 21.157 20.2446C20.2043 20.1093 19.0914 20.3721 17.9002 21.1899C17.3563 21.6353 16.8937 22.2878 16.7039 23.0786C16.5479 23.7286 16.5684 24.5073 16.9226 25.3911C17.2929 25.2921 17.7928 25.2025 18.365 25.2241C19.6385 25.2723 21.1676 25.8638 22.3504 27.7915C22.5669 28.1445 22.4563 28.6062 22.1033 28.8228C21.7502 29.0394 21.2887 28.9287 21.072 28.5757C20.1618 27.0921 19.1007 26.7531 18.3084 26.7231C17.8906 26.7074 17.5207 26.7777 17.2537 26.854C17.1213 26.8918 17.0173 26.9304 16.95 26.9575C16.9381 26.9623 16.9272 26.9662 16.9177 26.9702C15.5444 27.9366 14.8889 29.1962 14.8494 30.4146C14.8145 31.4937 15.26 32.6326 16.2771 33.604C16.4188 33.4596 16.5911 33.3089 16.7996 33.1694C17.5942 32.6381 18.7983 32.3219 20.5086 32.7739C20.909 32.8798 21.1476 33.2905 21.0418 33.6909C20.9357 34.0911 20.5251 34.3299 20.1248 34.2241C18.7848 33.8701 18.0327 34.1497 17.6336 34.4165C17.4209 34.5587 17.2775 34.7175 17.1902 34.8364C17.1515 34.8891 17.1249 34.9332 17.1082 34.9624L16.866 35.894C16.4578 37.4718 17.1362 39.216 18.3855 40.4966C18.4536 40.3959 18.5306 40.2917 18.6179 40.186C19.1091 39.5916 19.8939 38.9799 21.117 38.6108C21.0852 38.0552 21.2143 37.4552 21.5496 36.8237C21.7437 36.458 22.1974 36.3182 22.5632 36.5122C22.9291 36.7064 23.068 37.161 22.8738 37.5269C22.6111 38.0217 22.5827 38.395 22.6296 38.6704C22.6785 38.9565 22.8219 39.2108 23.0154 39.4331C23.2099 39.6566 23.4359 39.8257 23.6052 39.936C23.6881 39.99 23.753 40.0275 23.7976 40.0532C23.8074 40.0589 23.8239 40.0677 23.8386 40.0767C23.8456 40.0809 23.8594 40.0901 23.8757 40.1011C23.884 40.1066 23.8984 40.1159 23.9148 40.1284C23.9271 40.1378 23.9619 40.1653 24.0007 40.2056C24.0199 40.2255 24.0571 40.265 24.0935 40.3218C24.123 40.3677 24.1985 40.4944 24.2107 40.6772C24.2262 40.9113 24.1302 41.1481 23.9382 41.3062C23.7887 41.4293 23.6355 41.4592 23.5779 41.4683C23.4573 41.4871 23.3601 41.4713 23.3464 41.4692C23.3137 41.4642 23.2877 41.4577 23.2752 41.4546C23.2337 41.4442 23.1963 41.4303 23.1902 41.4282C23.1097 41.4003 23.0389 41.3578 22.9754 41.3081C22.926 41.279 22.8606 41.2409 22.7869 41.1929C22.5504 41.0388 22.2012 40.7825 21.8836 40.4175C21.7835 40.3025 21.6863 40.1736 21.5945 40.0327C20.6226 40.3167 20.0785 40.773 19.7742 41.1411C19.5927 41.3608 19.4859 41.5619 19.4265 41.6997C19.4069 41.7454 19.3937 41.7843 19.3836 41.814C19.405 43.4103 19.9655 44.6636 20.8543 45.5229C21.764 46.4025 23.0711 46.9214 24.6433 46.9214C25.5027 46.9214 26.4093 46.5263 27.1072 45.8735C27.805 45.2208 28.2253 44.3771 28.2254 43.5493V32.6724C28.0505 32.6233 27.8316 32.5776 27.5847 32.561C26.9666 32.5198 26.1626 32.6541 25.3884 33.4136C25.0928 33.7036 24.618 33.6985 24.3279 33.4028C24.038 33.1071 24.042 32.6323 24.3377 32.3423C25.473 31.2285 26.7248 30.9999 27.6843 31.064C27.8782 31.0769 28.0593 31.1041 28.2254 31.1353V17.8394ZM36.7869 13.5845C38.0339 13.6377 39.2355 14.0812 40.2195 14.856C41.2034 15.6307 41.9161 16.6944 42.2605 17.894L42.325 18.1353L42.3259 18.1392L42.4793 18.7896C43.285 18.955 44.066 19.3231 44.78 19.8257L45.0046 19.9897L45.0134 19.9956C46.03 20.7881 46.5752 22.0574 46.7439 23.272C46.8772 24.2319 46.7881 25.2614 46.4255 26.1157C47.0134 26.6225 47.5073 27.2317 47.8787 27.9175C48.3572 28.8012 48.6217 29.785 48.6502 30.7896C48.6786 31.794 48.4704 32.7914 48.0427 33.7007C47.6621 34.5098 47.1156 35.2284 46.4421 35.813L46.5847 36.3589L46.6902 36.8159C47.1407 39.0532 46.6971 41.6204 44.405 43.0669C43.901 44.4719 43.242 45.7544 42.1121 46.688C40.897 47.6917 39.2438 48.2114 36.9373 48.2114C36.3251 48.2115 35.7186 48.0911 35.1531 47.8569C34.5874 47.6227 34.0733 47.2791 33.6404 46.8462C33.2075 46.4133 32.8639 45.8992 32.6296 45.3335C32.3955 44.7679 32.275 44.1615 32.2752 43.5493V17.8394C32.2752 16.7095 32.7243 15.6257 33.5232 14.8267C34.3223 14.0276 35.4068 13.5786 36.5369 13.5786L36.7869 13.5845ZM29.7254 43.5493C29.7253 44.8824 29.0598 46.1 28.1316 46.9683C27.2034 47.8365 25.9438 48.4214 24.6433 48.4214C22.7364 48.4214 21.0376 47.7867 19.8113 46.6011C18.6564 45.4844 17.9677 43.9254 17.8884 42.0806C16.0521 40.5301 14.7676 38.0129 15.4138 35.5171V35.5161L15.5554 34.9712C14.0604 33.6967 13.2962 32.0468 13.3504 30.3667C13.4017 28.7776 14.1823 27.259 15.5916 26.0972C15.0725 24.8875 15.003 23.7414 15.2459 22.729C15.5242 21.569 16.2 20.6353 16.9783 20.0073L17.0222 19.9741C17.8561 19.3968 18.7104 19.0129 19.5574 18.8315L19.6658 18.188L19.6765 18.1353C19.991 16.8371 20.7325 15.6823 21.782 14.856C22.8315 14.0297 24.1279 13.5797 25.4636 13.5786H25.4646C26.5946 13.5786 27.6782 14.0276 28.4773 14.8267C29.2763 15.6257 29.7253 16.7093 29.7254 17.8394V43.5493ZM33.7752 34.8179C34.5607 34.9076 35.3195 35.173 35.9939 35.5981C36.3443 35.8191 36.4492 36.2829 36.2283 36.6333C36.0072 36.9832 35.5443 37.0885 35.1941 36.8677C34.76 36.594 34.2769 36.4151 33.7752 36.3345V43.5493L33.7791 43.7046C33.7968 44.0668 33.8774 44.4235 34.0164 44.7593C34.1752 45.1429 34.4073 45.492 34.7009 45.7856C34.9945 46.0793 35.3436 46.3123 35.7273 46.4712C36.1109 46.63 36.5221 46.7115 36.9373 46.7114C39.0193 46.7114 40.2922 46.2452 41.156 45.5317C41.9863 44.8459 42.5297 43.8556 42.9978 42.5483C42.997 42.5465 42.9967 42.5444 42.9959 42.5425C42.9365 42.4048 42.8305 42.2035 42.6492 41.9839C42.3452 41.616 41.8011 41.1606 40.8308 40.8765C40.7392 41.0169 40.6425 41.1457 40.5427 41.2603C40.2252 41.6251 39.8768 41.8816 39.6404 42.0356C39.5645 42.0851 39.4969 42.1235 39.447 42.1528C39.3845 42.2011 39.3158 42.2436 39.2371 42.271C39.2311 42.2731 39.1928 42.2869 39.1511 42.2974C39.1385 42.3005 39.1124 42.3061 39.0798 42.311C39.065 42.3133 38.969 42.3298 38.8494 42.311C38.792 42.3021 38.638 42.2724 38.488 42.1489C38.2962 41.9909 38.2011 41.754 38.2166 41.52C38.2287 41.3371 38.3043 41.2105 38.3337 41.1646C38.3701 41.1079 38.4063 41.0683 38.4255 41.0483C38.4643 41.0082 38.499 40.9807 38.5115 40.9712C38.5279 40.9587 38.5423 40.9494 38.5505 40.9438C38.567 40.9328 38.5816 40.9237 38.5886 40.9194C38.603 40.9107 38.6189 40.9016 38.6287 40.896C38.6732 40.8703 38.7383 40.8327 38.8211 40.7788C38.9904 40.6685 39.2172 40.4995 39.4119 40.2759C39.6054 40.0535 39.7488 39.7993 39.7976 39.5132C39.8446 39.2377 39.8153 38.8646 39.5525 38.3696C39.3583 38.0038 39.4982 37.5492 39.864 37.355C40.2298 37.1611 40.6836 37.3008 40.8777 37.6665C41.2131 38.2984 41.3404 38.8987 41.3084 39.4546C42.5298 39.8237 43.3147 40.4347 43.8054 41.0288C43.9183 41.1655 44.0122 41.3008 44.0935 41.4282C45.3537 40.3062 45.5986 38.5221 45.1336 36.7368L45.1326 36.7358L44.9343 35.9731C44.0142 35.3085 42.8842 34.9925 41.7478 35.0884C41.3351 35.1232 40.9723 34.8174 40.9373 34.4048C40.9024 33.9921 41.2082 33.6292 41.6209 33.5942C43.0143 33.4765 44.4002 33.8299 45.5623 34.5864C46.0304 34.1562 46.4136 33.6405 46.6853 33.063C47.013 32.3663 47.1719 31.6021 47.1502 30.8325C47.1284 30.0629 46.926 29.3084 46.5593 28.6313C46.2172 27.9997 45.7399 27.4529 45.1638 27.0259C45.1606 27.0254 45.1573 27.0254 45.1541 27.0249C45.0374 27.0065 44.8648 26.982 44.6492 26.9595C44.2163 26.9142 43.6168 26.877 42.9509 26.9087C41.7459 26.9661 40.4359 27.2432 39.4607 27.9878C39.4961 28.0842 39.5262 28.1797 39.5496 28.2739C39.659 28.7147 39.6515 29.1296 39.6218 29.4224C39.6067 29.5715 39.5847 29.6966 39.5662 29.7866C39.5569 29.8316 39.5486 29.8685 39.5418 29.896C39.5384 29.9097 39.5353 29.9213 39.533 29.9302C39.5318 29.9346 39.5309 29.9387 39.53 29.9419C39.5296 29.9435 39.5284 29.9455 39.5281 29.9468V29.9487C39.528 29.9491 39.5275 29.9501 38.8064 29.7446L39.5281 29.9497C39.4146 30.3481 38.9987 30.5788 38.6004 30.4653C38.2038 30.3521 37.9734 29.9402 38.0837 29.5435C38.084 29.5426 38.0846 29.5399 38.0857 29.5356C38.0881 29.5262 38.0925 29.5089 38.0974 29.4849C38.1074 29.4363 38.1204 29.3617 38.1296 29.271C38.1485 29.0842 38.1479 28.8545 38.0935 28.6353C38.0409 28.4234 37.9424 28.2353 37.7673 28.0864C37.5915 27.9369 37.2787 27.776 36.7097 27.7241C36.2974 27.6865 35.9936 27.322 36.031 26.9097C36.0686 26.4973 36.4332 26.1927 36.8455 26.23C37.5439 26.2937 38.1094 26.4896 38.5486 26.7974C39.8809 25.7783 41.561 25.4735 42.8796 25.4106C43.6398 25.3744 44.3179 25.4163 44.8054 25.4673C44.8961 25.4768 44.98 25.4898 45.0574 25.4995C45.277 24.9622 45.3642 24.2386 45.2586 23.478C45.1249 22.5156 44.707 21.6597 44.0906 21.1792V21.1782C43.106 20.435 42.103 20.1049 41.2244 20.2114C40.3751 20.3145 39.4865 20.8449 38.7361 22.1597C38.5307 22.5193 38.0724 22.6443 37.7127 22.439C37.3532 22.2335 37.2281 21.7751 37.4334 21.4155C38.3376 19.8315 39.5531 18.9463 40.9255 18.7397L40.867 18.4888L40.8191 18.3071C40.5614 17.4098 40.0277 16.6143 39.2918 16.0347C38.5064 15.4163 37.5355 15.0794 36.5359 15.0786C35.804 15.0788 35.1023 15.3698 34.5847 15.8872C34.067 16.4049 33.7752 17.1072 33.7752 17.8394V34.8179Z" fill="white"/>
</svg>
