<svg width="62" height="62" viewBox="0 0 62 62" fill="none" xmlns="http://www.w3.org/2000/svg">
<path d="M24 14C20.7 14 18 16.7 18 20V30C18 33.3 20.7 36 24 36H26V48C26 49.1 26.9 50 28 50H30V52H32V50H34C35.1 50 36 49.1 36 48V36H38C41.3 36 44 33.3 44 30V20C44 16.7 41.3 14 38 14H24ZM24 17H38C39.7 17 41 18.3 41 20V30C41 31.7 39.7 33 38 33H24C22.3 33 21 31.7 21 30V20C21 18.3 22.3 17 24 17ZM28 20C26.9 20 26 20.9 26 22V28C26 29.1 26.9 30 28 30C29.1 30 30 29.1 30 28V22C30 20.9 29.1 20 28 20ZM34 20C32.9 20 32 20.9 32 22V28C32 29.1 32.9 30 34 30C35.1 30 36 29.1 36 28V22C36 20.9 35.1 20 34 20Z" fill="currentColor"/>
</svg>
