<svg width="62" height="62" viewBox="0 0 62 62" fill="none" xmlns="http://www.w3.org/2000/svg">
<path d="M18.3178 44.0639V37.7151C18.3178 37.5899 18.2149 37.4883 18.0879 37.4883H14.1105C12.8933 37.4881 12.1175 36.2056 12.6946 35.1483L18.4004 24.695L19.6143 25.3398L13.9085 35.794C13.8264 35.9449 13.9369 36.1276 14.1105 36.1279H18.0879C18.9765 36.1279 19.6969 36.8385 19.6969 37.7151V44.0639C19.6969 44.1892 19.7998 44.2907 19.9267 44.2907H26.3625V45.6511H19.9267C19.0381 45.6511 18.3178 44.9405 18.3178 44.0639Z" fill="white"/>
<path d="M29.9614 10.5103C31.9397 10.0219 34.0048 9.88213 36.0367 10.0994C38.0688 10.3168 40.0306 10.8868 41.806 11.7791C43.5814 12.6714 45.1372 13.8693 46.3794 15.3059C47.6218 16.7428 48.5254 18.3898 49.0315 20.1512C49.5377 21.9128 49.6346 23.7497 49.3178 25.5523C49.2526 25.9224 48.896 26.1706 48.5208 26.1064C48.1458 26.0422 47.8944 25.6902 47.9591 25.3202C48.2406 23.7188 48.1545 22.0879 47.7047 20.5224C47.2548 18.9565 46.4489 17.4824 45.3303 16.1887C44.2114 14.8947 42.8015 13.8061 41.1798 12.9911C39.558 12.176 37.7588 11.6522 35.8882 11.4521C34.0176 11.2521 32.1159 11.3804 30.2959 11.8298C28.4761 12.2791 26.7776 13.0396 25.2989 14.0632C23.8201 15.0868 22.592 16.3519 21.6839 17.7812C20.776 19.2102 20.2053 20.7758 19.9999 22.385C19.9522 22.7576 19.6073 23.0213 19.2296 22.9744C18.8517 22.9274 18.5836 22.5872 18.6312 22.2145C18.8626 20.4024 19.505 18.6498 20.5157 17.059C21.5262 15.4685 22.884 14.0724 24.5059 12.9496C26.1277 11.8269 27.9831 10.9987 29.9614 10.5103Z" fill="white"/>
<path d="M40.8429 27.7383V26.8313C40.8429 26.5907 40.748 26.1893 40.4586 25.8588C40.1907 25.5531 39.7009 25.2441 38.7742 25.2441C37.8476 25.2441 37.3578 25.5531 37.0899 25.8588C36.8005 26.1893 36.7056 26.5907 36.7056 26.8313V28.4956C37.0881 28.5774 37.5074 28.7317 37.889 28.9952C38.5592 29.458 39.0696 30.2294 39.0696 31.3662C39.0696 32.5031 38.5592 33.2745 37.889 33.7373C37.2548 34.1752 36.5166 34.3139 36.0161 34.3139H33.7176C33.4199 34.3139 33.1562 34.1251 33.0631 33.8463L31.9605 30.5469L29.4699 36.173C29.3622 36.4162 29.1211 36.5759 28.8522 36.5814C28.5833 36.5867 28.335 36.4374 28.2174 36.1987L26.6201 32.9534H20.3864C20.0056 32.9534 19.6969 32.6489 19.6969 32.2732C19.6969 31.8975 20.0056 31.593 20.3864 31.593H27.052C27.3159 31.593 27.557 31.7415 27.6724 31.9756L28.8046 34.2758L31.4191 28.3734L31.4694 28.2804C31.6006 28.0767 31.8339 27.9544 32.0835 27.966C32.369 27.9792 32.6163 28.1649 32.7057 28.4327L34.2159 32.9534H36.0161C36.3035 32.9534 36.7471 32.8653 37.098 32.6231C37.4128 32.4056 37.6905 32.0433 37.6905 31.3662C37.6905 30.6891 37.4128 30.3268 37.098 30.1094C36.7471 29.8672 36.3035 29.779 36.0161 29.779C35.6352 29.779 35.3265 29.4745 35.3265 29.0988V26.8313C35.3265 26.3162 35.5078 25.5838 36.0457 24.9696C36.6053 24.3306 37.4946 23.8837 38.7742 23.8837C40.0539 23.8837 40.9432 24.3306 41.5028 24.9696C42.0407 25.5838 42.222 26.3162 42.222 26.8313V27.7383C42.222 28.114 41.9132 28.4186 41.5324 28.4186C41.1516 28.4186 40.8429 28.114 40.8429 27.7383Z" fill="white"/>
<path d="M35.3265 51.3198C35.3265 48.8313 35.24 46.8142 34.936 45.1782C34.6331 43.5486 34.1233 42.3493 33.3172 41.4546C31.7023 39.6626 28.6714 38.8488 22.6849 38.8488C22.3041 38.8488 21.9954 38.5443 21.9954 38.1686C21.9954 37.7929 22.3041 37.4883 22.6849 37.4883C28.6504 37.4883 32.2851 38.2619 34.3479 40.5512C35.3804 41.6971 35.9625 43.1623 36.2917 44.9337C36.6197 46.6988 36.7056 48.82 36.7056 51.3198C36.7056 51.6954 36.3969 52 36.0161 52C35.6352 52 35.3265 51.6954 35.3265 51.3198Z" fill="white"/>
<path d="M40.3832 51.3198V41.7965C40.3832 41.4208 40.6919 41.1163 41.0727 41.1163C41.4535 41.1163 41.7623 41.4208 41.7623 41.7965V51.3198C41.7623 51.6954 41.4535 52 41.0727 52C40.6919 52 40.3832 51.6954 40.3832 51.3198Z" fill="white"/>
</svg>
