<svg width="62" height="62" viewBox="0 0 62 62" fill="none" xmlns="http://www.w3.org/2000/svg">
<path d="M43.5475 38.7583C43.5474 37.8444 42.7678 37.0525 41.737 37.0523C40.7037 37.0523 39.9227 37.8426 39.9225 38.7583C39.9225 39.6764 40.6974 40.4654 41.7331 40.4654C42.7694 40.4652 43.5475 39.6719 43.5475 38.7583ZM41.7331 37.6861C41.8343 37.6855 41.9348 37.6988 42.0319 37.7261L42.1325 37.7593L42.2292 37.8033C42.292 37.8352 42.3516 37.873 42.4069 37.9165L42.487 37.9868L42.5602 38.064C42.6289 38.1444 42.6856 38.2344 42.7282 38.3316C42.7851 38.4615 42.8162 38.6019 42.819 38.7437H42.8171C42.8228 38.9548 42.7688 39.1632 42.6579 39.3433C42.544 39.5281 42.3773 39.6749 42.1794 39.7642C41.9815 39.8535 41.7614 39.8811 41.5475 39.8443C41.3336 39.8074 41.1357 39.7074 40.9792 39.5572C40.8226 39.4068 40.7141 39.2128 40.6686 39.0005C40.6232 38.7883 40.6421 38.567 40.7233 38.3658C40.8046 38.1645 40.9446 37.9919 41.1247 37.8706C41.3047 37.7495 41.517 37.6847 41.7341 37.6851L41.7331 37.6861ZM41.7331 38.3599V38.4224L41.7311 38.3599C41.6935 38.36 41.656 38.3653 41.6198 38.3755L41.5622 38.397C41.4872 38.4309 41.4237 38.4862 41.3806 38.5562C41.3385 38.6244 41.3179 38.7037 41.32 38.7837C41.3223 38.8355 41.3334 38.8866 41.3542 38.9341C41.3763 38.9845 41.4084 39.0298 41.4479 39.0679C41.4878 39.1062 41.5352 39.1367 41.5866 39.1568C41.6354 39.1758 41.6874 39.1842 41.7399 39.1841C41.8193 39.1826 41.8967 39.1592 41.9626 39.1148C42.0308 39.0688 42.0841 39.0036 42.1149 38.9273C42.1369 38.8728 42.1456 38.8145 42.1432 38.7564L42.069 38.7583L42.1432 38.7544C42.1422 38.7317 42.1402 38.7085 42.1354 38.6861C42.1225 38.6259 42.0965 38.5694 42.0593 38.521L42.0182 38.4751L42.0173 38.4742C41.973 38.4319 41.9197 38.4005 41.862 38.3814L41.8024 38.3667L41.7409 38.3599C41.7383 38.3598 41.7357 38.3599 41.7331 38.3599ZM22.9138 31.6802C22.9079 31.6819 22.902 31.6842 22.8962 31.6861C22.8535 31.7444 22.8047 31.7996 22.7438 31.8452C22.6918 31.8842 22.6352 31.9124 22.5778 31.9361C22.5708 31.9475 22.5626 31.9583 22.5563 31.9702C22.5196 32.0402 22.4971 32.117 22.4909 32.1958C22.4847 32.2746 22.4949 32.3543 22.5202 32.4292C22.5329 32.4667 22.5492 32.5027 22.569 32.5367L22.6384 32.6314L22.6618 32.6597C25.4926 36.1454 28.3602 38.3717 28.5681 38.5308C28.574 38.5349 28.5808 38.5392 28.5866 38.5435L28.6589 38.5894L28.6647 38.5923C28.716 38.6184 28.7703 38.6373 28.8268 38.648L28.8464 38.6519C28.8738 38.6562 28.9026 38.6583 28.9304 38.6587C28.9583 38.6583 28.9866 38.6562 29.0143 38.6519L29.0319 38.648C29.0891 38.6374 29.1442 38.6186 29.196 38.5923C29.1981 38.5912 29.2007 38.5905 29.2028 38.5894C29.2279 38.5757 29.2521 38.5604 29.2751 38.5435L29.2888 38.5337C31.4627 36.7922 33.444 34.823 35.1989 32.6597C35.296 32.5399 35.3423 32.3864 35.3268 32.2329C35.3113 32.0799 35.2356 31.9392 35.1169 31.8413C34.9972 31.745 34.844 31.6998 34.6911 31.7154C34.5373 31.7311 34.3954 31.8075 34.2975 31.9273C32.8216 33.7319 31.1903 35.4035 29.4225 36.9234C29.1414 37.1651 28.7262 37.1651 28.445 36.9234C26.677 35.4032 25.0447 33.7319 23.5681 31.9273C23.5598 31.9171 23.5514 31.9066 23.5436 31.896C23.4969 31.8324 23.4378 31.7789 23.3698 31.7388C23.3018 31.6987 23.2264 31.6727 23.1481 31.6626C23.0697 31.6526 22.9898 31.6586 22.9138 31.6802ZM23.6169 15.8814C23.6167 15.7411 23.4656 15.5006 23.114 15.5005C22.763 15.5005 22.6122 15.7404 22.612 15.8814C22.612 15.9017 22.6138 15.923 22.6179 15.9429L22.6354 15.9956C22.692 16.1207 22.8532 16.2632 23.114 16.2632C23.4664 16.2631 23.6169 16.022 23.6169 15.8814ZM25.1169 15.8814C25.1169 16.991 24.1469 17.7631 23.114 17.7632C22.456 17.7632 21.8356 17.4547 21.4636 16.9468C20.8483 17.1354 20.1876 17.4276 19.6452 17.8736C18.9677 18.4307 18.4529 19.2417 18.4528 20.5005C18.4528 24.389 20.2438 27.2124 22.486 30.2417C22.4916 30.2401 22.4971 30.2384 22.5026 30.2368C22.7741 30.1596 23.0587 30.1384 23.3386 30.1743C23.6184 30.2103 23.8884 30.3026 24.1315 30.4458C24.3632 30.5824 24.5651 30.7636 24.7282 30.9771C26.0118 32.5458 27.4194 34.0091 28.9333 35.356C30.447 34.0092 31.8533 32.546 33.1364 30.9771C33.4857 30.5497 33.9906 30.279 34.5397 30.2232C34.8116 30.1955 35.0834 30.2215 35.3405 30.2974C37.6009 27.2472 39.4138 24.4132 39.4138 20.5005C39.4137 19.2465 38.9032 18.4373 38.2302 17.8804C37.6864 17.4305 37.0218 17.1376 36.403 16.9478C36.0309 17.4553 35.4106 17.7631 34.7526 17.7632C33.7202 17.7632 32.7497 16.9907 32.7497 15.8814C32.7499 14.7726 33.7189 14.0005 34.7526 14.0005C35.6536 14.0007 36.5054 14.5879 36.7087 15.4742C37.4849 15.6989 38.4033 16.0773 39.1862 16.7251C40.1693 17.5386 40.9137 18.7568 40.9138 20.5005C40.9138 24.942 38.817 28.1304 36.527 31.2154C36.6853 31.4774 36.7877 31.7722 36.819 32.0826C36.8674 32.5616 36.7478 33.0405 36.485 33.439L36.364 33.605C34.536 35.8583 32.4714 37.9087 30.2057 39.7212C30.1862 39.7369 30.1653 39.7515 30.1442 39.7652L30.1276 39.7759C30.0718 39.8153 30.0141 39.8515 29.9548 39.8853L29.9431 39.8941C29.9363 39.8982 29.9294 39.9019 29.9225 39.9058L29.9216 39.9048C29.9133 39.9095 29.9056 39.9151 29.8972 39.9195C29.8535 39.9423 29.8085 39.9623 29.7634 39.982C29.9018 41.8253 30.2659 43.3967 31.0065 44.5269C31.7857 45.7158 33.0334 46.4995 35.1696 46.4995C37.3766 46.4995 38.6429 45.238 39.3962 43.8833C39.7755 43.2012 40.0123 42.5113 40.154 41.9878C40.1904 41.8534 40.2196 41.7309 40.2438 41.6236C39.1701 41.1013 38.4225 40.0296 38.4225 38.7583C38.4227 36.9526 39.9383 35.5523 41.737 35.5523C43.5378 35.5525 45.0474 36.9587 45.0475 38.7583C45.0475 40.5586 43.5382 41.9652 41.7331 41.9654C41.7238 41.9654 41.7141 41.9645 41.7048 41.9644C41.6767 42.0884 41.6423 42.2277 41.6013 42.3794C41.4383 42.9816 41.1619 43.7931 40.7067 44.6118C39.7908 46.259 38.1029 47.9995 35.1696 47.9995C32.5849 47.9995 30.8379 47.0067 29.7516 45.3492C28.8019 43.8999 28.4075 42.0131 28.2643 40.0474C28.1613 40.0125 28.0603 39.97 27.9636 39.9195C27.9481 39.9114 27.9325 39.9032 27.9177 39.8941L27.9059 39.8863C27.8467 39.8524 27.7889 39.8153 27.7331 39.7759L27.7175 39.7652C27.702 39.7551 27.6863 39.7451 27.6716 39.7339C27.5203 39.6193 24.4909 37.2907 21.4977 33.605C21.3214 33.4011 21.1857 33.1644 21.0993 32.9087C21.009 32.6415 20.9736 32.3589 20.9958 32.0777C21.0181 31.7963 21.0969 31.5218 21.2282 31.272C21.2491 31.2323 21.2723 31.194 21.2956 31.1558C19.0219 28.0889 16.9528 24.9128 16.9528 20.5005C16.9529 18.7493 17.7042 17.5285 18.6931 16.7154C19.4723 16.0746 20.3838 15.6987 21.1559 15.4751C21.3586 14.5882 22.2129 14.0005 23.114 14.0005C24.1455 14.0006 25.1167 14.7716 25.1169 15.8814ZM34.2497 15.8814C34.2497 16.0223 34.4014 16.2632 34.7526 16.2632C35.0519 16.2631 35.2194 16.0762 35.2497 15.9429C35.2537 15.923 35.2555 15.9027 35.2556 15.8824C35.2553 15.7417 35.1047 15.5007 34.7526 15.5005C34.4011 15.5005 34.2499 15.74 34.2497 15.8814Z" fill="white"/>
</svg>
