<svg width="62" height="62" viewBox="0 0 62 62" fill="none" xmlns="http://www.w3.org/2000/svg">
<path d="M43.5474 38.7584C43.5472 37.8444 42.7676 37.0525 41.7368 37.0523C40.7035 37.0523 39.9225 37.8427 39.9224 38.7584C39.9224 39.6765 40.6972 40.4654 41.7329 40.4654C42.7692 40.4652 43.5474 39.6719 43.5474 38.7584ZM41.7329 37.6861C41.8341 37.6855 41.9347 37.6988 42.0317 37.7261L42.1323 37.7593L42.229 37.8033C42.2918 37.8352 42.3514 37.873 42.4067 37.9166L42.4868 37.9869L42.5601 38.064C42.6287 38.1444 42.6854 38.2344 42.728 38.3316C42.7849 38.4615 42.816 38.6019 42.8188 38.7437H42.8169C42.8226 38.9549 42.7687 39.1632 42.6577 39.3433C42.5438 39.5281 42.3771 39.6749 42.1792 39.7642C41.9813 39.8535 41.7613 39.8811 41.5474 39.8443C41.3334 39.8074 41.1355 39.7075 40.979 39.5572C40.8224 39.4068 40.7139 39.2129 40.6685 39.0005C40.623 38.7883 40.6419 38.5671 40.7231 38.3658C40.8044 38.1645 40.9444 37.9919 41.1245 37.8707C41.3045 37.7495 41.5169 37.6847 41.7339 37.6851L41.7329 37.6861ZM41.7329 38.3599V38.4224L41.731 38.3599C41.6934 38.36 41.6558 38.3653 41.6196 38.3755L41.562 38.397C41.487 38.4309 41.4235 38.4862 41.3804 38.5562C41.3383 38.6245 41.3177 38.7037 41.3198 38.7838C41.3221 38.8355 41.3332 38.8867 41.354 38.9341C41.3761 38.9845 41.4082 39.0298 41.4478 39.0679C41.4876 39.1062 41.535 39.1367 41.5864 39.1568C41.6353 39.1759 41.6873 39.1842 41.7397 39.1841C41.8191 39.1826 41.8965 39.1592 41.9624 39.1148C42.0307 39.0688 42.0839 39.0036 42.1147 38.9273C42.1367 38.8728 42.1454 38.8146 42.1431 38.7564L42.0688 38.7584L42.1431 38.7545C42.142 38.7317 42.1401 38.7085 42.1353 38.6861C42.1223 38.6259 42.0963 38.5694 42.0591 38.5211L42.0181 38.4752L42.0171 38.4742C41.9728 38.4319 41.9195 38.4005 41.8618 38.3814L41.8022 38.3668L41.7407 38.3599C41.7381 38.3599 41.7355 38.3599 41.7329 38.3599ZM22.9136 31.6802C22.9077 31.6819 22.9018 31.6842 22.896 31.6861C22.8533 31.7444 22.8045 31.7997 22.7437 31.8453C22.6917 31.8842 22.6351 31.9125 22.5776 31.9361C22.5706 31.9475 22.5624 31.9584 22.5562 31.9703C22.5194 32.0403 22.497 32.117 22.4907 32.1959C22.4845 32.2747 22.4947 32.3544 22.52 32.4293C22.5327 32.4667 22.549 32.5027 22.5688 32.5367L22.6382 32.6314L22.6616 32.6597C25.4924 36.1454 28.36 38.3717 28.5679 38.5308C28.5738 38.535 28.5806 38.5392 28.5864 38.5435L28.6587 38.5894L28.6646 38.5923C28.7158 38.6184 28.7702 38.6373 28.8267 38.648L28.8462 38.6519C28.8737 38.6562 28.9024 38.6583 28.9302 38.6588C28.9581 38.6583 28.9865 38.6562 29.0142 38.6519L29.0317 38.648C29.0889 38.6374 29.144 38.6186 29.1958 38.5923C29.1979 38.5912 29.2006 38.5906 29.2026 38.5894C29.2277 38.5757 29.2519 38.5605 29.2749 38.5435L29.2886 38.5338C31.4625 36.7922 33.4438 34.823 35.1987 32.6597C35.2958 32.54 35.3421 32.3864 35.3267 32.233C35.3111 32.0799 35.2354 31.9393 35.1167 31.8414C34.997 31.745 34.8438 31.6999 34.6909 31.7154C34.5371 31.7311 34.3952 31.8076 34.2974 31.9273C32.8214 33.7319 31.1901 35.4035 29.4224 36.9234C29.1412 37.1651 28.726 37.1651 28.4448 36.9234C26.6768 35.4032 25.0445 33.7319 23.5679 31.9273C23.5596 31.9172 23.5512 31.9066 23.5435 31.8961C23.4967 31.8324 23.4377 31.7789 23.3696 31.7388C23.3016 31.6988 23.2262 31.6728 23.1479 31.6627C23.0695 31.6526 22.9896 31.6586 22.9136 31.6802ZM23.6167 15.8814C23.6165 15.7411 23.4654 15.5006 23.1138 15.5005C22.7628 15.5005 22.612 15.7404 22.6118 15.8814C22.6118 15.9018 22.6136 15.923 22.6177 15.9429L22.6353 15.9957C22.6919 16.1207 22.853 16.2632 23.1138 16.2632C23.4662 16.2631 23.6167 16.022 23.6167 15.8814ZM25.1167 15.8814C25.1167 16.991 24.1467 17.7631 23.1138 17.7632C22.4558 17.7632 21.8354 17.4548 21.4634 16.9468C20.8481 17.1354 20.1874 17.4276 19.645 17.8736C18.9675 18.4308 18.4527 19.2417 18.4526 20.5005C18.4526 24.3891 20.2437 27.2124 22.4858 30.2418C22.4914 30.2401 22.4969 30.2385 22.5024 30.2369C22.7739 30.1597 23.0585 30.1385 23.3384 30.1744C23.6183 30.2103 23.8882 30.3026 24.1313 30.4459C24.363 30.5824 24.5649 30.7636 24.728 30.9771C26.0116 32.5459 27.4192 34.0091 28.9331 35.356C30.4469 34.0093 31.8531 32.546 33.1362 30.9771C33.4855 30.5497 33.9904 30.2791 34.5396 30.2232C34.8114 30.1956 35.0832 30.2215 35.3403 30.2974C37.6008 27.2473 39.4136 24.4132 39.4136 20.5005C39.4135 19.2466 38.903 18.4373 38.23 17.8804C37.6862 17.4305 37.0216 17.1377 36.4028 16.9478C36.0307 17.4553 35.4104 17.7631 34.7524 17.7632C33.72 17.7632 32.7495 16.9907 32.7495 15.8814C32.7497 14.7726 33.7187 14.0005 34.7524 14.0005C35.6534 14.0007 36.5052 14.5879 36.7085 15.4742C37.4847 15.6989 38.4031 16.0773 39.186 16.7252C40.1691 17.5386 40.9135 18.7569 40.9136 20.5005C40.9136 24.942 38.8168 28.1304 36.5269 31.2154C36.6851 31.4774 36.7875 31.7723 36.8188 32.0826C36.8672 32.5617 36.7476 33.0405 36.4849 33.439L36.3638 33.605C34.5359 35.8583 32.4712 37.9087 30.2056 39.7213C30.186 39.7369 30.1651 39.7516 30.144 39.7652L30.1274 39.7759C30.0716 39.8153 30.0139 39.8515 29.9546 39.8853L29.9429 39.8941C29.9362 39.8982 29.9292 39.9019 29.9224 39.9058L29.9214 39.9048C29.9131 39.9096 29.9054 39.9151 29.897 39.9195C29.8533 39.9423 29.8083 39.9623 29.7632 39.982C29.9017 41.8254 30.2657 43.3967 31.0063 44.5269C31.7855 45.7158 33.0332 46.4996 35.1694 46.4996C37.3764 46.4996 38.6428 45.238 39.396 43.8834C39.7753 43.2012 40.0121 42.5114 40.1538 41.9879C40.1902 41.8535 40.2195 41.7309 40.2437 41.6236C39.1699 41.1014 38.4224 40.0296 38.4224 38.7584C38.4225 36.9526 39.9381 35.5523 41.7368 35.5523C43.5376 35.5525 45.0472 36.9587 45.0474 38.7584C45.0474 40.5587 43.538 41.9652 41.7329 41.9654C41.7236 41.9654 41.7139 41.9645 41.7046 41.9644C41.6765 42.0884 41.6421 42.2278 41.6011 42.3795C41.4381 42.9816 41.1618 43.7932 40.7065 44.6119C39.7907 46.2591 38.1027 47.9996 35.1694 47.9996C32.5847 47.9996 30.8377 47.0068 29.7515 45.3492C28.8018 43.8999 28.4073 42.0131 28.2642 40.0474C28.1611 40.0125 28.0601 39.97 27.9634 39.9195C27.9479 39.9114 27.9324 39.9033 27.9175 39.8941L27.9058 39.8863C27.8465 39.8525 27.7887 39.8153 27.7329 39.7759L27.7173 39.7652C27.7018 39.7552 27.6861 39.7451 27.6714 39.7339C27.5201 39.6194 24.4907 37.2907 21.4976 33.605C21.3212 33.4011 21.1855 33.1644 21.0991 32.9088C21.0088 32.6415 20.9734 32.3589 20.9956 32.0777C21.0179 31.7963 21.0967 31.5219 21.228 31.272C21.2489 31.2323 21.2721 31.194 21.2954 31.1558C19.0218 28.0889 16.9526 24.9128 16.9526 20.5005C16.9527 18.7493 17.7041 17.5285 18.6929 16.7154C19.4722 16.0746 20.3836 15.6987 21.1558 15.4752C21.3584 14.5882 22.2128 14.0005 23.1138 14.0005C24.1453 14.0007 25.1165 14.7716 25.1167 15.8814ZM34.2495 15.8814C34.2495 16.0224 34.4012 16.2632 34.7524 16.2632C35.0518 16.2631 35.2192 16.0762 35.2495 15.9429C35.2535 15.923 35.2554 15.9027 35.2554 15.8824C35.2552 15.7418 35.1045 15.5007 34.7524 15.5005C34.4009 15.5005 34.2497 15.7401 34.2495 15.8814Z" fill="white"/>
</svg>
