<svg width="62" height="62" viewBox="0 0 62 62" fill="none" xmlns="http://www.w3.org/2000/svg">
<path d="M40.4765 13.476C40.7694 13.1833 41.2442 13.1832 41.5371 13.476L48.5722 20.5112C48.8651 20.804 48.865 21.2788 48.5722 21.5717C48.2794 21.8646 47.8046 21.8646 47.5117 21.5717L46.626 20.686L41.6094 25.7026L45.4111 29.5053C45.704 29.7982 45.704 30.273 45.4111 30.5658C45.1182 30.8587 44.6435 30.8587 44.3506 30.5658L43.5107 29.726L27.7217 45.517C27.4289 45.8098 26.954 45.8096 26.6611 45.517L24.3476 43.2035L14.3164 48.6528C14.0245 48.8113 13.6626 48.7588 13.4277 48.5239C13.1929 48.2891 13.1405 47.928 13.2988 47.6362L18.747 37.6039L16.54 35.3969C16.3995 35.2564 16.3204 35.0654 16.3203 34.8666C16.3203 34.6677 16.3994 34.476 16.54 34.3354L32.3301 18.5453L31.4062 17.6225C31.1133 17.3296 31.1133 16.8539 31.4062 16.561C31.6991 16.2681 32.1749 16.2681 32.4678 16.561L36.3447 20.4379L41.3613 15.4213L40.4765 14.5365C40.1836 14.2437 40.1836 13.7689 40.4765 13.476ZM15.8261 46.1244L23.2412 42.0981L19.8525 38.7094L15.8261 46.1244ZM30.4385 22.558L33.3945 25.5131C33.6872 25.806 33.6872 26.2808 33.3945 26.5737C33.1017 26.8666 32.6269 26.8665 32.334 26.5737L29.3779 23.6196L26.1816 26.8158L29.1367 29.7709C29.4295 30.0639 29.4286 30.5386 29.1357 30.8315C28.8428 31.1243 28.368 31.1244 28.0752 30.8315L25.1211 27.8764L21.9238 31.0737L24.8789 34.0278C25.1717 34.3205 25.1724 34.7953 24.8799 35.0883C24.587 35.3813 24.1113 35.3812 23.8183 35.0883L20.8633 32.1342L18.1318 34.8657L25.0381 41.7729C25.0444 41.7798 25.0525 41.7852 25.0586 41.7924L27.1914 43.9252L42.4482 28.6684L33.3886 19.6088L30.4385 22.558ZM37.4053 21.4985L40.5488 24.642L45.5654 19.6254L42.4219 16.4819L37.4053 21.4985Z" fill="white"/>
</svg>
