<svg width="62" height="62" viewBox="0 0 62 62" fill="none" xmlns="http://www.w3.org/2000/svg">
<path d="M40.4765 13.476C40.7694 13.1833 41.2442 13.1832 41.537 13.476L48.5722 20.5112C48.865 20.804 48.8649 21.2788 48.5722 21.5717C48.2793 21.8646 47.8045 21.8646 47.5116 21.5717L46.6259 20.686L41.6093 25.7026L45.4111 29.5053C45.7039 29.7982 45.7039 30.273 45.4111 30.5658C45.1182 30.8587 44.6434 30.8587 44.3505 30.5658L43.5107 29.726L27.7216 45.517C27.4288 45.8098 26.954 45.8096 26.6611 45.517L24.3476 43.2035L14.3163 48.6528C14.0244 48.8113 13.6626 48.7588 13.4277 48.5239C13.1929 48.289 13.1405 47.928 13.2987 47.6362L18.747 37.6039L16.54 35.3969C16.3994 35.2564 16.3204 35.0654 16.3202 34.8666C16.3202 34.6677 16.3993 34.476 16.54 34.3354L32.33 18.5453L31.4062 17.6225C31.1133 17.3296 31.1133 16.8539 31.4062 16.561C31.6991 16.2681 32.1748 16.2681 32.4677 16.561L36.3446 20.4379L41.3612 15.4213L40.4765 14.5365C40.1836 14.2437 40.1836 13.7689 40.4765 13.476ZM15.8261 46.1244L23.2411 42.0981L19.8525 38.7094L15.8261 46.1244ZM30.4384 22.558L33.3945 25.5131C33.6872 25.806 33.6872 26.2808 33.3945 26.5737C33.1016 26.8666 32.6268 26.8665 32.3339 26.5737L29.3778 23.6196L26.1816 26.8158L29.1366 29.7709C29.4294 30.0639 29.4286 30.5386 29.1357 30.8315C28.8427 31.1243 28.3679 31.1244 28.0751 30.8315L25.121 27.8764L21.9237 31.0737L24.8788 34.0278C25.1717 34.3205 25.1723 34.7953 24.8798 35.0883C24.587 35.3813 24.1112 35.3812 23.8183 35.0883L20.8632 32.1342L18.1318 34.8657L25.038 41.7729C25.0443 41.7798 25.0524 41.7852 25.0585 41.7924L27.1913 43.9252L42.4482 28.6684L33.3886 19.6088L30.4384 22.558ZM37.4052 21.4985L40.5487 24.642L45.5653 19.6254L42.4218 16.4819L37.4052 21.4985Z" fill="white"/>
</svg>
